<?xml version="1.0" encoding="utf-8" standalone="no"?>
<!DOCTYPE svg PUBLIC "-//W3C//DTD SVG 1.1//EN"
  "http://www.w3.org/Graphics/SVG/1.1/DTD/svg11.dtd">
<!-- Created with matplotlib (https://matplotlib.org/) -->
<svg height="162pt" version="1.1" viewBox="0 0 234 162" width="234pt" xmlns="http://www.w3.org/2000/svg" xmlns:xlink="http://www.w3.org/1999/xlink">
 <defs>
  <style type="text/css">
*{stroke-linecap:butt;stroke-linejoin:round;white-space:pre;}
  </style>
 </defs>
 <g id="figure_1">
  <g id="patch_1">
   <path d="M 0 162 
L 234 162 
L 234 0 
L 0 0 
z
" style="fill:#ffffff;"/>
  </g>
  <g id="axes_1">
   <g id="patch_2">
    <path d="M 29.25 141.75 
L 210.6 141.75 
L 210.6 19.44 
L 29.25 19.44 
z
" style="fill:#ffffff;"/>
   </g>
   <g id="matplotlib.axis_1">
    <g id="xtick_1">
     <g id="line2d_1">
      <defs>
       <path d="M 0 0 
L 0 3.5 
" id="m9000ed0d0d" style="stroke:#000000;stroke-width:0.8;"/>
      </defs>
      <g>
       <use style="stroke:#000000;stroke-width:0.8;" x="29.25" xlink:href="#m9000ed0d0d" y="141.75"/>
      </g>
     </g>
     <g id="text_1">
      <!-- 200 -->
      <defs>
       <path d="M 2.984375 1.125 
Q 20.84375 19.671875 27.234375 28.359375 
Q 33.640625 37.0625 33.640625 45.3125 
Q 33.640625 52.546875 29.734375 56.328125 
Q 25.828125 60.109375 20.40625 60.109375 
Q 13.71875 60.109375 9.578125 55.21875 
Q 7.28125 52.546875 5.171875 46.96875 
L 3.078125 47.40625 
Q 5.515625 58.640625 11.34375 63.015625 
Q 17.1875 67.390625 23.875 67.390625 
Q 32.125 67.390625 37.21875 62.1875 
Q 42.328125 56.984375 42.328125 49.46875 
Q 42.328125 41.453125 36.8125 34.03125 
Q 31.296875 26.609375 12.84375 7.625 
L 35.25 7.625 
Q 39.9375 7.625 41.84375 8.734375 
Q 43.75 9.859375 46.140625 14.203125 
L 47.40625 13.625 
L 42 0 
L 2.984375 0 
z
" id="Times-Roman-50"/>
       <path d="M 23.921875 1.8125 
Q 31.109375 1.8125 33.78125 9.671875 
Q 36.46875 17.53125 36.46875 32.421875 
Q 36.46875 44.28125 34.859375 51.375 
Q 31.84375 64.546875 23.53125 64.546875 
Q 15.234375 64.546875 12.15625 50.984375 
Q 10.546875 43.75 10.546875 31.9375 
Q 10.546875 20.84375 12.203125 14.203125 
Q 15.328125 1.8125 23.921875 1.8125 
z
M 23.78125 67.1875 
Q 35.015625 67.1875 41.21875 55.421875 
Q 46.140625 45.90625 46.140625 33.546875 
Q 46.140625 23.828125 43.109375 15.234375 
Q 37.40625 -0.921875 23.34375 -0.921875 
Q 13.71875 -0.921875 7.515625 7.8125 
Q 0.875 17.140625 0.875 33.15625 
Q 0.875 45.75 5.328125 54.828125 
Q 11.328125 67.1875 23.78125 67.1875 
z
" id="Times-Roman-48"/>
      </defs>
      <g transform="translate(24.045 153.508238)scale(0.0694 -0.0694)">
       <use xlink:href="#Times-Roman-50"/>
       <use x="50" xlink:href="#Times-Roman-48"/>
       <use x="100" xlink:href="#Times-Roman-48"/>
      </g>
     </g>
    </g>
    <g id="xtick_2">
     <g id="line2d_2">
      <g>
       <use style="stroke:#000000;stroke-width:0.8;" x="65.33321" xlink:href="#m9000ed0d0d" y="141.75"/>
      </g>
     </g>
     <g id="text_2">
      <!-- 500 -->
      <defs>
       <path d="M 7.46875 8.9375 
Q 10.25 8.9375 14.765625 5.78125 
Q 19.28125 2.640625 21.734375 2.640625 
Q 27.34375 2.640625 31.546875 7.59375 
Q 35.75 12.546875 35.75 19.78125 
Q 35.75 32.421875 22.265625 37.984375 
Q 14.796875 41.0625 8.34375 41.0625 
Q 7.28125 41.0625 7 41.140625 
Q 6.734375 41.21875 6.34375 41.65625 
Q 6.453125 42.046875 6.515625 42.3125 
Q 6.59375 42.578125 6.6875 42.828125 
L 17.328125 66.15625 
L 38.28125 66.15625 
Q 39.84375 66.15625 40.6875 66.6875 
Q 41.546875 67.234375 42.921875 68.703125 
L 43.703125 68.015625 
L 39.890625 58.984375 
Q 39.703125 58.546875 38.8125 58.421875 
Q 37.9375 58.296875 36.921875 58.296875 
L 18.015625 58.296875 
L 13.875 49.75 
Q 21.875 48.390625 25.59375 47.171875 
Q 31.6875 45.125 35.796875 41.109375 
Q 39.3125 37.640625 41.109375 33.3125 
Q 42.921875 29 42.921875 24.171875 
Q 42.921875 13.375 35.234375 6.140625 
Q 27.546875 -1.078125 15.765625 -1.078125 
Q 10.984375 -1.078125 8.0625 -0.140625 
Q 3.171875 1.375 3.171875 5.28125 
Q 3.171875 6.734375 4.21875 7.828125 
Q 5.28125 8.9375 7.46875 8.9375 
z
" id="Times-Roman-53"/>
      </defs>
      <g transform="translate(60.12821 153.508238)scale(0.0694 -0.0694)">
       <use xlink:href="#Times-Roman-53"/>
       <use x="50" xlink:href="#Times-Roman-48"/>
       <use x="100" xlink:href="#Times-Roman-48"/>
      </g>
     </g>
    </g>
    <g id="xtick_3">
     <g id="line2d_3">
      <g>
       <use style="stroke:#000000;stroke-width:0.8;" x="92.629105" xlink:href="#m9000ed0d0d" y="141.75"/>
      </g>
     </g>
     <g id="text_3">
      <!-- 1k -->
      <defs>
       <path d="M 29.59375 67.09375 
Q 29.78125 66.84375 29.796875 66.71875 
Q 29.828125 66.609375 29.828125 66.15625 
L 29.828125 7.375 
Q 29.828125 3.609375 31.828125 2.578125 
Q 33.84375 1.5625 39.3125 1.375 
L 39.3125 0 
L 11.765625 0 
L 11.765625 1.46875 
Q 17.671875 1.765625 19.484375 3.078125 
Q 21.296875 4.390625 21.296875 8.796875 
L 21.296875 54 
Q 21.296875 56.34375 20.703125 57.5625 
Q 20.125 58.796875 18.171875 58.796875 
Q 16.890625 58.796875 14.859375 58.078125 
Q 12.84375 57.375 11.078125 56.59375 
L 11.078125 57.953125 
L 29 67.09375 
L 29.59375 67.09375 
z
" id="Times-Roman-49"/>
       <path d="M 0.203125 1.375 
Q 4.890625 1.703125 6.375 2.921875 
Q 7.859375 4.15625 7.859375 8.203125 
L 7.859375 57.125 
Q 7.859375 60.59375 6.6875 61.515625 
Q 5.515625 62.453125 3.328125 62.453125 
Q 2.390625 62.453125 1.703125 62.40625 
Q 1.03125 62.359375 0.203125 62.25 
L 0.203125 63.625 
L 4.59375 64.796875 
Q 9.625 66.109375 13.140625 67.28125 
Q 15.28125 68.015625 15.625 68.015625 
Q 15.921875 68.015625 15.984375 67.890625 
Q 16.0625 67.78125 16.0625 67.328125 
L 16.0625 26.265625 
L 29.59375 38.1875 
Q 31.0625 39.5 31.5625 40.28125 
Q 32.078125 41.0625 32.078125 41.65625 
Q 32.078125 42.78125 30.984375 43.0625 
Q 29.890625 43.359375 27.046875 43.5 
L 27.046875 44.875 
L 47.40625 44.875 
L 47.40625 43.5 
Q 41.9375 43.171875 38.609375 41.328125 
Q 35.296875 39.5 25.875 30.859375 
L 23 28.21875 
L 32.03125 16.5 
Q 38.96875 7.515625 42.484375 4.5625 
Q 46 1.609375 49.953125 1.265625 
L 49.953125 0 
L 28.21875 0 
L 28.21875 1.375 
L 29.9375 1.46875 
Q 30.765625 1.515625 31.4375 1.796875 
Q 32.125 2.09375 32.125 2.78125 
Q 32.125 3.328125 31.875 3.78125 
Q 31.640625 4.25 31.203125 4.828125 
L 16.0625 24.75 
L 16.0625 6.6875 
Q 16.0625 3.328125 18.5625 2.203125 
Q 20.015625 1.515625 23.578125 1.46875 
L 23.578125 0 
L 0.203125 0 
z
" id="Times-Roman-107"/>
      </defs>
      <g transform="translate(89.159105 153.508238)scale(0.0694 -0.0694)">
       <use xlink:href="#Times-Roman-49"/>
       <use x="50" xlink:href="#Times-Roman-107"/>
      </g>
     </g>
    </g>
    <g id="xtick_4">
     <g id="line2d_4">
      <g>
       <use style="stroke:#000000;stroke-width:0.8;" x="128.712315" xlink:href="#m9000ed0d0d" y="141.75"/>
      </g>
     </g>
     <g id="text_4">
      <!-- 2.5k -->
      <defs>
       <path d="M 16.3125 -1.171875 
Q 13.96875 -1.171875 12.359375 0.453125 
Q 10.75 2.09375 10.75 4.390625 
Q 10.75 6.6875 12.375 8.296875 
Q 14.015625 9.90625 16.3125 9.90625 
Q 18.609375 9.90625 20.21875 8.296875 
Q 21.828125 6.6875 21.828125 4.390625 
Q 21.828125 2.09375 20.234375 0.453125 
Q 18.65625 -1.171875 16.3125 -1.171875 
z
" id="Times-Roman-46"/>
      </defs>
      <g transform="translate(122.639815 153.508238)scale(0.0694 -0.0694)">
       <use xlink:href="#Times-Roman-50"/>
       <use x="50" xlink:href="#Times-Roman-46"/>
       <use x="75" xlink:href="#Times-Roman-53"/>
       <use x="125" xlink:href="#Times-Roman-107"/>
      </g>
     </g>
    </g>
    <g id="xtick_5">
     <g id="line2d_5">
      <g>
       <use style="stroke:#000000;stroke-width:0.8;" x="156.00821" xlink:href="#m9000ed0d0d" y="141.75"/>
      </g>
     </g>
     <g id="text_5">
      <!-- 5k -->
      <g transform="translate(152.53821 153.508238)scale(0.0694 -0.0694)">
       <use xlink:href="#Times-Roman-53"/>
       <use x="50" xlink:href="#Times-Roman-107"/>
      </g>
     </g>
    </g>
    <g id="xtick_6">
     <g id="line2d_6">
      <g>
       <use style="stroke:#000000;stroke-width:0.8;" x="183.304105" xlink:href="#m9000ed0d0d" y="141.75"/>
      </g>
     </g>
     <g id="text_6">
      <!-- 10k -->
      <g transform="translate(178.099105 153.508238)scale(0.0694 -0.0694)">
       <use xlink:href="#Times-Roman-49"/>
       <use x="50" xlink:href="#Times-Roman-48"/>
       <use x="100" xlink:href="#Times-Roman-107"/>
      </g>
     </g>
    </g>
    <g id="xtick_7">
     <g id="line2d_7">
      <g>
       <use style="stroke:#000000;stroke-width:0.8;" x="210.6" xlink:href="#m9000ed0d0d" y="141.75"/>
      </g>
     </g>
     <g id="text_7">
      <!-- 20k -->
      <g transform="translate(205.395 153.508238)scale(0.0694 -0.0694)">
       <use xlink:href="#Times-Roman-50"/>
       <use x="50" xlink:href="#Times-Roman-48"/>
       <use x="100" xlink:href="#Times-Roman-107"/>
      </g>
     </g>
    </g>
    <g id="xtick_8">
     <g id="line2d_8">
      <defs>
       <path d="M 0 0 
L 0 2 
" id="me252c39910" style="stroke:#000000;stroke-width:0.6;"/>
      </defs>
      <g>
       <use style="stroke:#000000;stroke-width:0.6;" x="45.217075" xlink:href="#me252c39910" y="141.75"/>
      </g>
     </g>
    </g>
    <g id="xtick_9">
     <g id="line2d_9">
      <g>
       <use style="stroke:#000000;stroke-width:0.6;" x="56.545895" xlink:href="#me252c39910" y="141.75"/>
      </g>
     </g>
    </g>
    <g id="xtick_10">
     <g id="line2d_10">
      <g>
       <use style="stroke:#000000;stroke-width:0.6;" x="72.51297" xlink:href="#me252c39910" y="141.75"/>
      </g>
     </g>
    </g>
    <g id="xtick_11">
     <g id="line2d_11">
      <g>
       <use style="stroke:#000000;stroke-width:0.6;" x="78.58337" xlink:href="#me252c39910" y="141.75"/>
      </g>
     </g>
    </g>
    <g id="xtick_12">
     <g id="line2d_12">
      <g>
       <use style="stroke:#000000;stroke-width:0.6;" x="83.84179" xlink:href="#me252c39910" y="141.75"/>
      </g>
     </g>
    </g>
    <g id="xtick_13">
     <g id="line2d_13">
      <g>
       <use style="stroke:#000000;stroke-width:0.6;" x="88.480045" xlink:href="#me252c39910" y="141.75"/>
      </g>
     </g>
    </g>
    <g id="xtick_14">
     <g id="line2d_14">
      <g>
       <use style="stroke:#000000;stroke-width:0.6;" x="119.925" xlink:href="#me252c39910" y="141.75"/>
      </g>
     </g>
    </g>
    <g id="xtick_15">
     <g id="line2d_15">
      <g>
       <use style="stroke:#000000;stroke-width:0.6;" x="135.892075" xlink:href="#me252c39910" y="141.75"/>
      </g>
     </g>
    </g>
    <g id="xtick_16">
     <g id="line2d_16">
      <g>
       <use style="stroke:#000000;stroke-width:0.6;" x="147.220895" xlink:href="#me252c39910" y="141.75"/>
      </g>
     </g>
    </g>
    <g id="xtick_17">
     <g id="line2d_17">
      <g>
       <use style="stroke:#000000;stroke-width:0.6;" x="163.18797" xlink:href="#me252c39910" y="141.75"/>
      </g>
     </g>
    </g>
    <g id="xtick_18">
     <g id="line2d_18">
      <g>
       <use style="stroke:#000000;stroke-width:0.6;" x="169.25837" xlink:href="#me252c39910" y="141.75"/>
      </g>
     </g>
    </g>
    <g id="xtick_19">
     <g id="line2d_19">
      <g>
       <use style="stroke:#000000;stroke-width:0.6;" x="174.51679" xlink:href="#me252c39910" y="141.75"/>
      </g>
     </g>
    </g>
    <g id="xtick_20">
     <g id="line2d_20">
      <g>
       <use style="stroke:#000000;stroke-width:0.6;" x="179.155045" xlink:href="#me252c39910" y="141.75"/>
      </g>
     </g>
    </g>
    <g id="text_8">
     <!-- # labels -->
     <defs>
      <path d="M 27.875 24.609375 
L 32.375 41.40625 
L 21.828125 41.40625 
L 17.328125 24.609375 
z
M 0.78125 24.609375 
L 11.421875 24.609375 
L 16.0625 41.5 
L 5.421875 41.5 
L 6.203125 45.125 
L 16.890625 45.125 
L 22.65625 66.0625 
L 28.65625 66.0625 
L 22.90625 45.125 
L 33.453125 45.125 
L 39.109375 66.0625 
L 45.015625 66.0625 
L 39.203125 45.125 
L 49.859375 45.125 
L 48.921875 41.5 
L 38.28125 41.5 
L 33.796875 24.609375 
L 44.4375 24.609375 
L 43.359375 20.953125 
L 32.859375 20.953125 
L 27.203125 0 
L 21.140625 0 
L 26.953125 20.953125 
L 16.40625 20.953125 
L 10.75 0 
L 4.828125 0 
L 10.5 20.953125 
L 0 20.953125 
z
" id="Times-Roman-35"/>
      <path id="Times-Roman-32"/>
      <path d="M 2.046875 1.375 
Q 6.59375 1.8125 8.203125 3.203125 
Q 9.8125 4.59375 9.8125 8.640625 
L 9.8125 56.34375 
Q 9.8125 59.578125 9.28125 60.796875 
Q 8.296875 62.84375 5.328125 62.84375 
Q 4.640625 62.84375 3.828125 62.6875 
Q 3.03125 62.546875 1.8125 62.25 
L 1.8125 63.875 
Q 8.40625 65.625 17.671875 68.5625 
Q 18.015625 68.5625 18.09375 68.265625 
Q 18.171875 67.96875 18.171875 67 
L 18.171875 8.453125 
Q 18.171875 4.203125 19.625 2.953125 
Q 21.09375 1.703125 25.6875 1.375 
L 25.6875 0 
L 2.046875 0 
z
" id="Times-Roman-108"/>
      <path d="M 28.65625 27.046875 
Q 23.046875 25.203125 19.390625 22.953125 
Q 12.359375 18.609375 12.359375 13.09375 
Q 12.359375 8.640625 15.28125 6.546875 
Q 17.1875 5.171875 19.53125 5.171875 
Q 22.75 5.171875 25.703125 6.984375 
Q 28.65625 8.796875 28.65625 11.578125 
z
M 3.65625 9.71875 
Q 3.65625 16.796875 10.75 21.53125 
Q 15.234375 24.46875 28.65625 29.5 
L 28.65625 33.640625 
Q 28.65625 38.625 27.6875 40.578125 
Q 26.03125 43.84375 20.796875 43.84375 
Q 18.3125 43.84375 16.0625 42.578125 
Q 13.8125 41.265625 13.8125 38.96875 
Q 13.8125 38.375 14.0625 36.984375 
Q 14.3125 35.59375 14.3125 35.203125 
Q 14.3125 32.46875 12.5 31.390625 
Q 11.46875 30.765625 10.0625 30.765625 
Q 7.859375 30.765625 6.6875 32.203125 
Q 5.515625 33.640625 5.515625 35.40625 
Q 5.515625 38.8125 9.734375 42.546875 
Q 13.96875 46.296875 22.125 46.296875 
Q 31.59375 46.296875 34.96875 40.140625 
Q 36.765625 36.765625 36.765625 30.328125 
L 36.765625 10.75 
Q 36.765625 7.90625 37.15625 6.84375 
Q 37.796875 4.9375 39.796875 4.9375 
Q 40.921875 4.9375 41.65625 5.265625 
Q 42.390625 5.609375 44.1875 6.9375 
L 44.1875 4.390625 
Q 42.625 2.484375 40.828125 1.265625 
Q 38.09375 -0.59375 35.25 -0.59375 
Q 31.9375 -0.59375 30.4375 1.5625 
Q 28.953125 3.71875 28.8125 6.6875 
Q 25.09375 3.46875 22.46875 1.90625 
Q 18.015625 -0.734375 14.015625 -0.734375 
Q 9.8125 -0.734375 6.734375 2.21875 
Q 3.65625 5.171875 3.65625 9.71875 
z
M 22.265625 46.296875 
z
" id="Times-Roman-97"/>
      <path d="M 0.34375 62.109375 
L 0.34375 63.765625 
Q 5.90625 65.046875 10.34375 66.609375 
Q 14.796875 68.171875 15.140625 68.171875 
Q 15.234375 67.875 15.234375 67.578125 
L 15.234375 37.84375 
Q 16.5 40.1875 19.046875 42.28125 
Q 23.53125 45.953125 29.390625 45.953125 
Q 36.578125 45.953125 41.65625 39.890625 
Q 46.734375 33.84375 46.734375 24.171875 
Q 46.734375 13.8125 40.140625 6.4375 
Q 33.546875 -0.921875 22.796875 -0.921875 
Q 17.390625 -0.921875 12.15625 1.21875 
Q 6.9375 3.375 6.9375 5.515625 
L 6.9375 57.125 
Q 6.9375 59.96875 6.15625 61.15625 
Q 5.375 62.359375 2.546875 62.359375 
z
M 15.046875 7.125 
Q 15.484375 4.59375 18.84375 3.484375 
Q 22.21875 2.390625 24.75 2.390625 
Q 31.59375 2.390625 34.890625 7.515625 
Q 38.1875 12.640625 38.1875 19.921875 
Q 38.1875 27.203125 35.109375 33.375 
Q 32.03125 39.546875 25.140625 39.546875 
Q 21.6875 39.546875 18.359375 37.421875 
Q 15.046875 35.296875 15.046875 32.03125 
L 15.046875 7.125 
z
" id="Times-Roman-98"/>
      <path d="M 22.90625 45.796875 
Q 29.78125 45.796875 34.953125 41.03125 
Q 40.140625 36.28125 40.140625 27.546875 
L 9.125 27.546875 
Q 9.625 16.21875 14.25 11.03125 
Q 18.890625 5.859375 25.25 5.859375 
Q 30.375 5.859375 33.890625 8.546875 
Q 37.40625 11.234375 40.375 16.15625 
L 42.09375 15.578125 
Q 40.09375 9.375 34.59375 4.09375 
Q 29.109375 -1.171875 21.140625 -1.171875 
Q 11.96875 -1.171875 6.953125 5.765625 
Q 1.953125 12.703125 1.953125 21.734375 
Q 1.953125 31.546875 7.765625 38.671875 
Q 13.578125 45.796875 22.90625 45.796875 
z
M 20.0625 42.234375 
Q 14.5 42.234375 11.578125 37.3125 
Q 10.015625 34.671875 9.328125 30.671875 
L 29.9375 30.671875 
Q 29.390625 35.546875 28.078125 37.9375 
Q 25.6875 42.234375 20.0625 42.234375 
z
M 22.265625 45.796875 
z
" id="Times-Roman-101"/>
      <path d="M 5.171875 15.375 
L 6.78125 15.375 
Q 7.90625 9.8125 9.8125 6.84375 
Q 13.234375 1.375 19.828125 1.375 
Q 23.484375 1.375 25.609375 3.390625 
Q 27.734375 5.421875 27.734375 8.640625 
Q 27.734375 10.6875 26.515625 12.59375 
Q 25.296875 14.5 22.21875 16.3125 
L 16.75 19.4375 
Q 10.75 22.65625 7.90625 25.921875 
Q 5.078125 29.203125 5.078125 33.640625 
Q 5.078125 39.109375 8.984375 42.625 
Q 12.890625 46.140625 18.796875 46.140625 
Q 21.390625 46.140625 24.484375 45.15625 
Q 27.59375 44.1875 27.984375 44.1875 
Q 28.859375 44.1875 29.25 44.421875 
Q 29.640625 44.671875 29.9375 45.21875 
L 31.109375 45.21875 
L 31.453125 31.59375 
L 29.9375 31.59375 
Q 28.953125 36.328125 27.296875 38.96875 
Q 24.265625 43.84375 18.5625 43.84375 
Q 15.140625 43.84375 13.1875 41.75 
Q 11.234375 39.65625 11.234375 36.8125 
Q 11.234375 32.328125 17.96875 28.8125 
L 24.421875 25.34375 
Q 34.8125 19.671875 34.8125 12.15625 
Q 34.8125 6.390625 30.484375 2.734375 
Q 26.171875 -0.921875 19.1875 -0.921875 
Q 16.265625 -0.921875 12.546875 0.046875 
Q 8.84375 1.03125 8.15625 1.03125 
Q 7.5625 1.03125 7.125 0.609375 
Q 6.6875 0.203125 6.453125 -0.390625 
L 5.171875 -0.390625 
z
M 19.484375 46.140625 
z
" id="Times-Roman-115"/>
     </defs>
     <g transform="translate(104.511719 165.876106)scale(0.1 -0.1)">
      <use xlink:href="#Times-Roman-35"/>
      <use x="50" xlink:href="#Times-Roman-32"/>
      <use x="75" xlink:href="#Times-Roman-108"/>
      <use x="102.783203" xlink:href="#Times-Roman-97"/>
      <use x="147.167969" xlink:href="#Times-Roman-98"/>
      <use x="197.167969" xlink:href="#Times-Roman-101"/>
      <use x="241.552734" xlink:href="#Times-Roman-108"/>
      <use x="269.335938" xlink:href="#Times-Roman-115"/>
     </g>
    </g>
   </g>
   <g id="matplotlib.axis_2">
    <g id="ytick_1">
     <g id="line2d_21">
      <defs>
       <path d="M 0 0 
L -3.5 0 
" id="m530277eda3" style="stroke:#000000;stroke-width:0.8;"/>
      </defs>
      <g>
       <use style="stroke:#000000;stroke-width:0.8;" x="29.25" xlink:href="#m530277eda3" y="141.75"/>
      </g>
     </g>
     <g id="text_9">
      <!-- 0% -->
      <defs>
       <path d="M 27.640625 66.15625 
Q 30.671875 66.15625 32.5625 65.375 
Q 33.59375 64.984375 34.578125 64.109375 
L 36.421875 62.453125 
Q 37.546875 61.46875 39.59375 61.078125 
Q 41.65625 60.6875 43.796875 60.6875 
Q 49.421875 60.6875 54.15625 63.421875 
Q 56.6875 64.84375 59.46875 67.578125 
L 63.375 67.578125 
L 24.859375 -1.421875 
L 20.125 -1.421875 
L 54.9375 61.078125 
Q 51.265625 59.375 49.453125 58.828125 
Q 47.65625 58.296875 44.671875 58.296875 
Q 42.046875 58.296875 40.140625 58.640625 
Q 38.921875 58.84375 37.703125 59.234375 
Q 38.09375 57.90625 38.234375 57.046875 
Q 38.375 56.203125 38.375 54.390625 
Q 38.375 45.609375 32.484375 37.234375 
Q 26.609375 28.859375 18.0625 28.859375 
Q 13.53125 28.859375 9.8125 32.328125 
Q 6.109375 35.796875 6.109375 42.484375 
Q 6.109375 50.53125 12.640625 58.34375 
Q 19.1875 66.15625 27.640625 66.15625 
z
M 59.078125 2.984375 
Q 65.046875 2.984375 69.796875 10.765625 
Q 74.5625 18.5625 74.5625 25.203125 
Q 74.5625 29.296875 72.5625 31.59375 
Q 70.5625 33.890625 67.328125 33.890625 
Q 61.53125 33.890625 56.984375 25 
Q 52.4375 16.109375 52.4375 9.625 
Q 52.4375 6.390625 54.296875 4.6875 
Q 56.15625 2.984375 59.078125 2.984375 
z
M 44.875 13.625 
Q 44.875 22.078125 51.578125 29.5625 
Q 58.296875 37.0625 66.453125 37.0625 
Q 70.703125 37.0625 73.96875 34.515625 
Q 77.25 31.984375 77.25 25.09375 
Q 77.25 17.71875 71.671875 8.78125 
Q 66.109375 -0.140625 56.984375 -0.140625 
Q 52.046875 -0.140625 48.453125 3.203125 
Q 44.875 6.546875 44.875 13.625 
z
M 19.875 32.28125 
Q 25.875 32.28125 30.859375 39.546875 
Q 35.84375 46.828125 35.84375 55.421875 
Q 35.84375 58.5 35.171875 59.375 
Q 34.515625 60.25 32.859375 60.640625 
Q 31.6875 60.9375 30.09375 62.078125 
Q 28.515625 63.234375 28.171875 63.234375 
Q 23.4375 63.234375 18.53125 54.765625 
Q 13.625 46.296875 13.625 39.15625 
Q 13.625 35.9375 15.15625 34.109375 
Q 16.703125 32.28125 19.875 32.28125 
z
" id="Times-Roman-37"/>
      </defs>
      <g transform="translate(12.999197 144.129119)scale(0.0694 -0.0694)">
       <use xlink:href="#Times-Roman-48"/>
       <use x="50" xlink:href="#Times-Roman-37"/>
      </g>
     </g>
    </g>
    <g id="ytick_2">
     <g id="line2d_22">
      <g>
       <use style="stroke:#000000;stroke-width:0.8;" x="29.25" xlink:href="#m530277eda3" y="117.288"/>
      </g>
     </g>
     <g id="text_10">
      <!-- 20% -->
      <g transform="translate(9.529197 119.667119)scale(0.0694 -0.0694)">
       <use xlink:href="#Times-Roman-50"/>
       <use x="50" xlink:href="#Times-Roman-48"/>
       <use x="100" xlink:href="#Times-Roman-37"/>
      </g>
     </g>
    </g>
    <g id="ytick_3">
     <g id="line2d_23">
      <g>
       <use style="stroke:#000000;stroke-width:0.8;" x="29.25" xlink:href="#m530277eda3" y="92.826"/>
      </g>
     </g>
     <g id="text_11">
      <!-- 40% -->
      <defs>
       <path d="M 29.15625 57.03125 
L 5.171875 23.140625 
L 29.15625 23.140625 
z
M 32.375 67.09375 
L 37.015625 67.09375 
L 37.015625 23.140625 
L 47.21875 23.140625 
L 47.21875 16.65625 
L 37.015625 16.65625 
L 37.015625 0 
L 29.25 0 
L 29.25 16.65625 
L 1.125 16.65625 
L 1.125 23.140625 
z
" id="Times-Roman-52"/>
      </defs>
      <g transform="translate(9.529197 95.205119)scale(0.0694 -0.0694)">
       <use xlink:href="#Times-Roman-52"/>
       <use x="50" xlink:href="#Times-Roman-48"/>
       <use x="100" xlink:href="#Times-Roman-37"/>
      </g>
     </g>
    </g>
    <g id="ytick_4">
     <g id="line2d_24">
      <g>
       <use style="stroke:#000000;stroke-width:0.8;" x="29.25" xlink:href="#m530277eda3" y="68.364"/>
      </g>
     </g>
     <g id="text_12">
      <!-- 60% -->
      <defs>
       <path d="M 46.78125 22.21875 
Q 46.78125 13.28125 41.03125 6.09375 
Q 35.296875 -1.078125 26.125 -1.078125 
Q 17.53125 -1.078125 10.46875 6.984375 
Q 3.421875 15.046875 3.421875 28.421875 
Q 3.421875 45.65625 17.09375 58.015625 
Q 29.296875 68.359375 44.53125 68.359375 
L 44.78125 66.75 
Q 38.671875 65.625 34.25 63.6875 
Q 29.828125 61.765625 26.375 58.296875 
Q 22.796875 54.78125 19.671875 49.359375 
Q 16.546875 43.953125 15.375 38.625 
Q 18.40625 40.484375 20.609375 41.359375 
Q 24.515625 42.921875 28.46875 42.921875 
Q 36.234375 42.921875 41.5 37.546875 
Q 46.78125 32.171875 46.78125 22.21875 
z
M 37.84375 18.453125 
Q 37.84375 24.953125 35.796875 29.984375 
Q 32.375 38.375 24.171875 38.375 
Q 16.609375 38.375 14.109375 33.890625 
Q 12.640625 31.25 12.640625 25.09375 
Q 12.640625 17.140625 16.03125 9.515625 
Q 19.4375 1.90625 26.765625 1.90625 
Q 32.5625 1.90625 35.203125 6.859375 
Q 37.84375 11.8125 37.84375 18.453125 
z
" id="Times-Roman-54"/>
      </defs>
      <g transform="translate(9.529197 70.743119)scale(0.0694 -0.0694)">
       <use xlink:href="#Times-Roman-54"/>
       <use x="50" xlink:href="#Times-Roman-48"/>
       <use x="100" xlink:href="#Times-Roman-37"/>
      </g>
     </g>
    </g>
    <g id="ytick_5">
     <g id="line2d_25">
      <g>
       <use style="stroke:#000000;stroke-width:0.8;" x="29.25" xlink:href="#m530277eda3" y="43.902"/>
      </g>
     </g>
     <g id="text_13">
      <!-- 80% -->
      <defs>
       <path d="M 25.140625 1.65625 
Q 30.765625 1.65625 33.640625 4.78125 
Q 36.53125 7.90625 36.53125 12.59375 
Q 36.53125 17.921875 33.46875 21.21875 
Q 30.421875 24.515625 20.953125 31.203125 
Q 16.75 28.5625 14.84375 24.359375 
Q 12.9375 20.171875 12.9375 16.265625 
Q 12.9375 9.578125 16.375 5.609375 
Q 19.828125 1.65625 25.140625 1.65625 
z
M 25.78125 38.96875 
Q 30.375 42.1875 32.125 44.390625 
Q 35.15625 48.140625 35.15625 53.46875 
Q 35.15625 58.109375 32.296875 61.34375 
Q 29.4375 64.59375 23.640625 64.59375 
Q 19.140625 64.59375 16.203125 61.765625 
Q 13.28125 58.9375 13.28125 54.890625 
Q 13.28125 50.296875 16.71875 46.359375 
Q 20.171875 42.4375 25.78125 38.96875 
z
M 18.265625 33.296875 
Q 11.8125 38.484375 9.46875 41.546875 
Q 5.859375 46.234375 5.859375 51.90625 
Q 5.859375 58.34375 11.203125 62.828125 
Q 16.546875 67.328125 25.09375 67.328125 
Q 32.953125 67.328125 37.59375 63.078125 
Q 42.234375 58.84375 42.234375 53.21875 
Q 42.234375 47.515625 37.5 42.96875 
Q 34.765625 40.375 28.65625 37.015625 
Q 36.96875 30.859375 40.546875 26.296875 
Q 44.140625 21.734375 44.140625 15.53125 
Q 44.140625 8.5 38.84375 3.703125 
Q 33.546875 -1.078125 24.65625 -1.078125 
Q 16.703125 -1.078125 11.015625 3.34375 
Q 5.328125 7.765625 5.328125 14.984375 
Q 5.328125 21.1875 9.28125 25.921875 
Q 11.859375 29 18.265625 33.296875 
z
" id="Times-Roman-56"/>
      </defs>
      <g transform="translate(9.529197 46.281119)scale(0.0694 -0.0694)">
       <use xlink:href="#Times-Roman-56"/>
       <use x="50" xlink:href="#Times-Roman-48"/>
       <use x="100" xlink:href="#Times-Roman-37"/>
      </g>
     </g>
    </g>
    <g id="ytick_6">
     <g id="line2d_26">
      <g>
       <use style="stroke:#000000;stroke-width:0.8;" x="29.25" xlink:href="#m530277eda3" y="19.44"/>
      </g>
     </g>
     <g id="text_14">
      <!-- 100% -->
      <g transform="translate(6.059197 21.819119)scale(0.0694 -0.0694)">
       <use xlink:href="#Times-Roman-49"/>
       <use x="50" xlink:href="#Times-Roman-48"/>
       <use x="100" xlink:href="#Times-Roman-48"/>
       <use x="150" xlink:href="#Times-Roman-37"/>
      </g>
     </g>
    </g>
    <g id="text_15">
     <!-- Win rate -->
     <defs>
      <path d="M 24.953125 66.15625 
L 24.953125 64.3125 
Q 21.96875 64.203125 20.703125 63.765625 
Q 18.453125 62.9375 18.453125 60.75 
Q 18.453125 59.765625 18.71875 58.828125 
Q 19 57.90625 19.53125 56.453125 
L 33.984375 18.84375 
L 44.625 47.078125 
L 39.890625 59.125 
Q 38.578125 62.453125 35.9375 63.578125 
Q 34.375 64.265625 31.203125 64.3125 
L 31.203125 66.15625 
L 57.953125 66.15625 
L 57.953125 64.3125 
Q 54.203125 64.265625 52.78125 63.765625 
Q 50.53125 62.9375 50.53125 60.359375 
Q 50.53125 59.46875 50.71875 58.8125 
Q 50.921875 58.15625 51.703125 56.109375 
L 66.15625 18.609375 
L 78.65625 52.546875 
Q 79.734375 55.421875 80.125 57.671875 
Q 80.375 58.9375 80.375 59.71875 
Q 80.375 62.5 77.734375 63.578125 
Q 76.265625 64.203125 73.34375 64.3125 
L 73.34375 66.15625 
L 93.171875 66.15625 
L 93.171875 64.3125 
Q 90.484375 63.921875 89.0625 63.09375 
Q 86.53125 61.671875 85.25 58.203125 
L 74.609375 28.46875 
L 70.453125 17 
L 64.453125 -1.171875 
L 62.9375 -1.171875 
L 58.890625 10.40625 
L 46.96875 41.15625 
L 31.59375 -1.171875 
L 30.078125 -1.171875 
L 22.90625 19.625 
L 14.3125 43.015625 
Q 8.984375 57.46875 6.90625 60.765625 
Q 4.828125 64.0625 0.4375 64.3125 
L 0.4375 66.15625 
z
" id="Times-Roman-87"/>
      <path d="M 8.203125 63.03125 
Q 8.203125 65.140625 9.671875 66.65625 
Q 11.140625 68.171875 13.28125 68.171875 
Q 15.375 68.171875 16.859375 66.671875 
Q 18.359375 65.1875 18.359375 63.03125 
Q 18.359375 60.9375 16.859375 59.4375 
Q 15.375 57.953125 13.28125 57.953125 
Q 11.140625 57.953125 9.671875 59.4375 
Q 8.203125 60.9375 8.203125 63.03125 
z
M 1.953125 1.375 
Q 7.171875 1.859375 8.53125 3.140625 
Q 9.90625 4.4375 9.90625 10.15625 
L 9.90625 33.453125 
Q 9.90625 36.625 9.46875 37.84375 
Q 8.734375 39.84375 6.390625 39.84375 
Q 5.859375 39.84375 5.34375 39.75 
Q 4.828125 39.65625 2.390625 38.96875 
L 2.390625 40.484375 
L 4.5 41.15625 
Q 13.03125 43.953125 16.40625 45.359375 
Q 17.78125 45.953125 18.171875 45.953125 
Q 18.265625 45.609375 18.265625 45.21875 
L 18.265625 10.15625 
Q 18.265625 4.59375 19.609375 3.171875 
Q 20.953125 1.765625 25.6875 1.375 
L 25.6875 0 
L 1.953125 0 
z
" id="Times-Roman-105"/>
      <path d="M 1.8125 1.375 
Q 5.28125 1.8125 6.671875 3.09375 
Q 8.0625 4.390625 8.0625 8.890625 
L 8.0625 33.640625 
Q 8.0625 36.765625 7.46875 38.03125 
Q 6.546875 39.890625 3.65625 39.890625 
Q 3.21875 39.890625 2.75 39.84375 
Q 2.296875 39.796875 1.609375 39.703125 
L 1.609375 41.40625 
Q 3.609375 42 11.078125 44.4375 
L 15.671875 45.953125 
Q 16.015625 45.953125 16.078125 45.703125 
Q 16.15625 45.453125 16.15625 45.015625 
L 16.15625 37.84375 
Q 20.65625 42.046875 23.1875 43.609375 
Q 27 46 31.109375 46 
Q 34.421875 46 37.15625 44.09375 
Q 42.4375 40.375 42.4375 30.859375 
L 42.4375 8.0625 
Q 42.4375 4.546875 43.84375 2.984375 
Q 45.265625 1.421875 48.578125 1.375 
L 48.578125 0 
L 27.734375 0 
L 27.734375 1.375 
Q 31.296875 1.859375 32.703125 3.34375 
Q 34.125 4.828125 34.125 9.8125 
L 34.125 30.671875 
Q 34.125 34.859375 32.5625 37.609375 
Q 31 40.375 26.8125 40.375 
Q 23.921875 40.375 20.953125 38.421875 
Q 19.28125 37.3125 16.65625 34.71875 
L 16.65625 7.375 
Q 16.65625 3.859375 18.21875 2.65625 
Q 19.78125 1.46875 23.140625 1.375 
L 23.140625 0 
L 1.8125 0 
z
M 25.046875 46 
z
" id="Times-Roman-110"/>
      <path d="M 0.4375 1.609375 
Q 4.9375 2 6.390625 3.1875 
Q 7.859375 4.390625 7.859375 8.296875 
L 7.859375 30.328125 
Q 7.859375 35.15625 6.953125 37.234375 
Q 6.0625 39.3125 3.65625 39.3125 
Q 3.171875 39.3125 2.359375 39.1875 
Q 1.5625 39.0625 0.6875 38.875 
L 0.6875 40.484375 
Q 3.46875 41.453125 6.390625 42.46875 
Q 9.328125 43.5 10.453125 43.953125 
Q 12.890625 44.875 15.484375 46.046875 
Q 15.828125 46.046875 15.890625 45.796875 
Q 15.96875 45.5625 15.96875 44.78125 
L 15.96875 36.765625 
Q 19.09375 41.109375 22 43.546875 
Q 24.90625 46 28.03125 46 
Q 30.515625 46 32.078125 44.5 
Q 33.640625 43.015625 33.640625 40.765625 
Q 33.640625 38.765625 32.4375 37.390625 
Q 31.25 36.03125 29.4375 36.03125 
Q 27.59375 36.03125 25.703125 37.734375 
Q 23.828125 39.453125 22.75 39.453125 
Q 21.046875 39.453125 18.546875 36.6875 
Q 16.0625 33.9375 16.0625 31 
L 16.0625 8.984375 
Q 16.0625 4.78125 18.015625 3.140625 
Q 19.96875 1.515625 24.515625 1.609375 
L 24.515625 0 
L 0.4375 0 
z
" id="Times-Roman-114"/>
      <path d="M 25.4375 45.015625 
L 25.4375 41.5 
L 15.484375 41.5 
L 15.375 13.375 
Q 15.375 9.671875 16.015625 7.765625 
Q 17.1875 4.390625 20.609375 4.390625 
Q 22.359375 4.390625 23.65625 5.21875 
Q 24.953125 6.0625 26.609375 7.859375 
L 27.875 6.78125 
L 26.8125 5.328125 
Q 24.265625 1.90625 21.4375 0.484375 
Q 18.609375 -0.921875 15.96875 -0.921875 
Q 10.203125 -0.921875 8.15625 4.203125 
Q 7.03125 6.984375 7.03125 11.921875 
L 7.03125 41.5 
L 1.703125 41.5 
Q 1.46875 41.65625 1.34375 41.796875 
Q 1.21875 41.9375 1.21875 42.1875 
Q 1.21875 42.671875 1.4375 42.9375 
Q 1.65625 43.21875 2.828125 44.1875 
Q 6.203125 46.96875 7.6875 48.703125 
Q 9.1875 50.4375 14.703125 57.859375 
Q 15.328125 57.859375 15.453125 57.765625 
Q 15.578125 57.671875 15.578125 57.03125 
L 15.578125 45.015625 
z
" id="Times-Roman-116"/>
     </defs>
     <g transform="translate(-0.118928 97.946562)rotate(-90)scale(0.1 -0.1)">
      <use xlink:href="#Times-Roman-87"/>
      <use x="94.384766" xlink:href="#Times-Roman-105"/>
      <use x="122.167969" xlink:href="#Times-Roman-110"/>
      <use x="172.167969" xlink:href="#Times-Roman-32"/>
      <use x="197.167969" xlink:href="#Times-Roman-114"/>
      <use x="230.46875" xlink:href="#Times-Roman-97"/>
      <use x="274.853516" xlink:href="#Times-Roman-116"/>
      <use x="302.636719" xlink:href="#Times-Roman-101"/>
     </g>
    </g>
   </g>
   <g id="line2d_27">
    <path clip-path="url(#p7ce780861c)" d="M 29.25 46.075869 
L 65.33321 48.58418 
L 92.629105 41.059248 
L 128.712315 52.884141 
L 156.00821 36.16207 
L 183.304105 36.16207 
L 210.6 38.312051 
" style="fill:none;stroke:#0072b2;stroke-linecap:square;stroke-width:1.5;"/>
   </g>
   <g id="patch_3">
    <path d="M 29.25 141.75 
L 29.25 19.44 
" style="fill:none;stroke:#000000;stroke-linecap:square;stroke-linejoin:miter;stroke-width:0.8;"/>
   </g>
   <g id="patch_4">
    <path d="M 210.6 141.75 
L 210.6 19.44 
" style="fill:none;stroke:#000000;stroke-linecap:square;stroke-linejoin:miter;stroke-width:0.8;"/>
   </g>
   <g id="patch_5">
    <path d="M 29.25 141.75 
L 210.6 141.75 
" style="fill:none;stroke:#000000;stroke-linecap:square;stroke-linejoin:miter;stroke-width:0.8;"/>
   </g>
   <g id="patch_6">
    <path d="M 29.25 19.44 
L 210.6 19.44 
" style="fill:none;stroke:#000000;stroke-linecap:square;stroke-linejoin:miter;stroke-width:0.8;"/>
   </g>
   <g id="text_16">
    <!-- Descriptiveness: offline vs. zero-shot -->
    <defs>
     <path d="M 20.5625 7.71875 
Q 20.5625 5.28125 21.75 4.5 
Q 22.953125 3.71875 26.703125 3.71875 
Q 38.421875 3.71875 46 8.34375 
Q 57.625 15.484375 57.625 32.71875 
Q 57.625 48.09375 48.046875 55.859375 
Q 39.84375 62.5 26.3125 62.5 
Q 22.953125 62.5 21.75 61.765625 
Q 20.5625 61.03125 20.5625 58.546875 
L 20.5625 7.71875 
z
M 1.609375 1.8125 
Q 7.078125 2.390625 8.734375 3.78125 
Q 10.40625 5.171875 10.40625 10.84375 
L 10.40625 55.328125 
Q 10.40625 60.796875 8.78125 62.359375 
Q 7.171875 63.921875 1.609375 64.3125 
L 1.609375 66.15625 
L 28.5625 66.15625 
Q 42.1875 66.15625 51.609375 61.671875 
Q 68.609375 53.609375 68.609375 32.859375 
Q 68.609375 25.390625 65.546875 18.65625 
Q 62.5 11.921875 56.34375 7.28125 
Q 52.4375 4.34375 48.25 2.828125 
Q 40.578125 0 29.390625 0 
L 1.609375 0 
z
" id="Times-Roman-68"/>
     <path d="M 24.859375 46.046875 
Q 30.953125 46.046875 35.375 42.890625 
Q 39.796875 39.75 39.796875 35.984375 
Q 39.796875 34.375 38.671875 32.984375 
Q 37.546875 31.59375 35.203125 31.59375 
Q 33.5 31.59375 32.203125 32.765625 
Q 30.90625 33.9375 30.328125 36.1875 
L 29.734375 38.53125 
Q 29.109375 41.109375 27.546875 42.1875 
Q 25.921875 43.21875 23.296875 43.21875 
Q 17.71875 43.21875 13.890625 38.359375 
Q 10.0625 33.5 10.0625 25.4375 
Q 10.0625 18.0625 14.28125 12.203125 
Q 18.5 6.34375 25.6875 6.34375 
Q 30.765625 6.34375 34.71875 9.671875 
Q 36.96875 11.578125 39.796875 15.71875 
L 41.15625 14.890625 
Q 38.375 9.03125 35.296875 5.609375 
Q 29.390625 -0.921875 21.625 -0.921875 
Q 14.015625 -0.921875 8.15625 5.078125 
Q 2.296875 11.078125 2.296875 21.390625 
Q 2.296875 31.5 8.6875 38.765625 
Q 15.09375 46.046875 24.859375 46.046875 
z
M 22.703125 46.046875 
z
" id="Times-Roman-99"/>
     <path d="M 15.96875 8.984375 
Q 17.234375 5.671875 19.75 4.03125 
Q 22.265625 2.390625 25.6875 2.390625 
Q 30.953125 2.390625 34.6875 7.640625 
Q 38.421875 12.890625 38.421875 22.265625 
Q 38.421875 31.25 34.546875 35.6875 
Q 30.671875 40.140625 25.53125 40.140625 
Q 21.921875 40.140625 18.9375 37.90625 
Q 15.96875 35.6875 15.96875 33.546875 
L 15.96875 8.984375 
z
M 0.4375 -20.171875 
Q 5.03125 -19.875 6.265625 -18.203125 
Q 7.515625 -16.546875 7.515625 -12.984375 
L 7.515625 33.890625 
Q 7.515625 37.59375 6.609375 38.640625 
Q 5.71875 39.703125 3.21875 39.703125 
Q 2.6875 39.703125 2.21875 39.640625 
Q 1.765625 39.59375 0.875 39.453125 
L 0.875 41.0625 
L 5.515625 42.578125 
Q 5.765625 42.625 15.328125 45.953125 
Q 15.578125 45.953125 15.703125 45.734375 
Q 15.828125 45.515625 15.828125 45.21875 
L 15.828125 38.625 
Q 19.046875 41.84375 21.484375 43.40625 
Q 25.875 46.140625 30.515625 46.140625 
Q 37.25 46.140625 42.109375 40.40625 
Q 46.96875 34.671875 46.96875 24.703125 
Q 46.96875 14.9375 41.125 6.96875 
Q 35.296875 -0.984375 26.46875 -0.984375 
Q 23.734375 -0.984375 21.734375 -0.296875 
Q 18.609375 0.734375 15.96875 3.46875 
L 15.96875 -12.5 
Q 15.96875 -17.4375 17.578125 -18.546875 
Q 19.1875 -19.671875 24.609375 -20.0625 
L 24.609375 -21.78125 
L 0.4375 -21.78125 
z
" id="Times-Roman-112"/>
     <path d="M 21.484375 45.359375 
L 21.484375 43.84375 
Q 18.953125 43.5625 17.890625 43.0625 
Q 16.84375 42.578125 16.84375 40.921875 
Q 16.84375 40.140625 17.0625 39.421875 
Q 17.28125 38.71875 17.828125 37.359375 
L 27.984375 12.109375 
L 36.765625 34.46875 
Q 37.40625 36.078125 37.96875 37.828125 
Q 38.53125 39.59375 38.53125 40.53125 
Q 38.53125 42.4375 36.71875 43.265625 
Q 35.640625 43.703125 33.796875 43.84375 
L 33.796875 45.359375 
L 47.65625 45.359375 
L 47.65625 43.84375 
Q 45.265625 43.65625 44.21875 42.265625 
Q 43.171875 40.875 41.15625 35.84375 
L 27.046875 0.6875 
Q 26.65625 -0.25 26.40625 -0.578125 
Q 26.171875 -0.921875 25.734375 -0.921875 
Q 25.25 -0.921875 24.90625 -0.359375 
Q 24.5625 0.203125 24.171875 1.03125 
L 9.234375 36.765625 
Q 7.421875 41.109375 5.375 42.671875 
Q 4.15625 43.5625 1.8125 43.84375 
L 1.8125 45.359375 
z
" id="Times-Roman-118"/>
     <path d="M 18.953125 40.578125 
Q 18.953125 38.140625 17.265625 36.59375 
Q 15.578125 35.0625 13.421875 35.0625 
Q 11.078125 35.0625 9.5625 36.71875 
Q 8.0625 38.375 8.0625 40.53125 
Q 8.0625 42.78125 9.625 44.359375 
Q 11.1875 45.953125 13.421875 45.953125 
Q 15.578125 45.953125 17.265625 44.40625 
Q 18.953125 42.875 18.953125 40.578125 
z
M 13.28125 -0.828125 
Q 11.234375 -0.828125 9.640625 0.78125 
Q 8.0625 2.390625 8.0625 4.6875 
Q 8.0625 6.890625 9.625 8.515625 
Q 11.1875 10.15625 13.484375 10.15625 
Q 15.765625 10.15625 17.46875 8.5625 
Q 19.1875 6.984375 19.1875 4.734375 
Q 19.1875 2.59375 17.578125 0.875 
Q 15.96875 -0.828125 13.28125 -0.828125 
z
" id="Times-Roman-58"/>
     <path d="M 2.546875 22.65625 
Q 2.546875 32.375 8.71875 39.078125 
Q 14.890625 45.796875 24.609375 45.796875 
Q 34.28125 45.796875 40.625 39.453125 
Q 46.96875 33.109375 46.96875 22.5625 
Q 46.96875 12.84375 40.8125 5.65625 
Q 34.671875 -1.515625 24.90625 -1.515625 
Q 15.53125 -1.515625 9.03125 5.359375 
Q 2.546875 12.25 2.546875 22.65625 
z
M 23.25 42.875 
Q 19.390625 42.875 16.546875 40.328125 
Q 11.671875 35.890625 11.671875 25 
Q 11.671875 16.3125 15.59375 8.78125 
Q 19.53125 1.265625 26.515625 1.265625 
Q 31.984375 1.265625 34.9375 6.296875 
Q 37.890625 11.328125 37.890625 19.484375 
Q 37.890625 27.9375 34.125 35.40625 
Q 30.375 42.875 23.25 42.875 
z
M 25.046875 45.796875 
z
" id="Times-Roman-111"/>
     <path d="M 1.953125 1.375 
Q 7.125 1.609375 8.765625 3.296875 
Q 10.40625 4.984375 10.40625 10.40625 
L 10.40625 41.75 
L 2.046875 41.75 
L 2.046875 45.015625 
L 10.40625 45.015625 
Q 10.40625 52.734375 12.5 58.0625 
Q 16.5 68.265625 27.203125 68.265625 
Q 31.5 68.265625 34.890625 66.546875 
Q 38.28125 64.84375 38.28125 61.96875 
Q 38.28125 60.359375 37.109375 59.078125 
Q 35.9375 57.8125 34.28125 57.8125 
Q 32.859375 57.8125 31.828125 58.65625 
Q 30.8125 59.515625 29.390625 61.671875 
L 28.5625 62.9375 
Q 27.875 63.96875 26.953125 64.671875 
Q 26.03125 65.375 24.359375 65.375 
Q 20.65625 65.375 19.34375 61.71875 
Q 18.609375 59.765625 18.609375 56.59375 
L 18.609375 45.015625 
L 30.859375 45.015625 
L 30.859375 41.75 
L 18.703125 41.75 
L 18.703125 10.40625 
Q 18.703125 4.890625 20.1875 3.34375 
Q 21.6875 1.8125 27.984375 1.375 
L 27.984375 0 
L 1.953125 0 
z
" id="Times-Roman-102"/>
     <path d="M 40.484375 44.875 
L 40.484375 43.703125 
L 13.375 3.078125 
L 27.203125 3.078125 
Q 34.375 3.078125 36.28125 4.90625 
Q 38.1875 6.734375 40.046875 13.875 
L 41.75 13.53125 
L 40.375 0 
L 2.546875 0 
L 2.546875 1.125 
L 29.25 41.890625 
L 16.15625 41.890625 
Q 10.890625 41.890625 9.28125 40.078125 
Q 7.671875 38.28125 7.03125 33.0625 
L 5.328125 33.0625 
L 5.515625 44.875 
z
M 22.265625 45.796875 
z
" id="Times-Roman-122"/>
     <path d="M 3.90625 25.6875 
L 28.46875 25.6875 
L 28.46875 19.4375 
L 3.90625 19.4375 
z
" id="Times-Roman-45"/>
     <path d="M 0.875 1.375 
Q 4.890625 1.90625 6.125 3.34375 
Q 7.375 4.78125 7.375 10.15625 
L 7.375 57.03125 
Q 7.375 59.765625 6.65625 61.0625 
Q 5.953125 62.359375 3.21875 62.359375 
Q 2.6875 62.359375 2.171875 62.28125 
Q 1.65625 62.203125 1.03125 62.109375 
L 1.03125 63.875 
Q 3.171875 64.5 6.3125 65.40625 
Q 9.46875 66.3125 10.6875 66.703125 
L 15.375 68.171875 
L 15.484375 67.828125 
L 15.484375 37.84375 
Q 18.5625 41.359375 20.953125 43.015625 
Q 25.25 45.953125 30.21875 45.953125 
Q 38.140625 45.953125 41.015625 39.3125 
Q 42.578125 35.796875 42.578125 30.078125 
L 42.578125 10.15625 
Q 42.578125 4.984375 43.765625 3.421875 
Q 44.96875 1.859375 48.6875 1.375 
L 48.6875 0 
L 27.546875 0 
L 27.546875 1.375 
Q 31.78125 1.953125 33 3.359375 
Q 34.234375 4.78125 34.234375 10.15625 
L 34.234375 29.9375 
Q 34.234375 34.671875 32.640625 37.59375 
Q 31.0625 40.53125 26.65625 40.53125 
Q 22.859375 40.53125 19.28125 37.796875 
Q 15.71875 35.0625 15.71875 34.234375 
L 15.71875 10.15625 
Q 15.71875 4.6875 16.984375 3.3125 
Q 18.265625 1.953125 22.40625 1.375 
L 22.40625 0 
L 0.875 0 
z
" id="Times-Roman-104"/>
    </defs>
    <g transform="translate(45.499219 13.44)scale(0.1 -0.1)">
     <use xlink:href="#Times-Roman-68"/>
     <use x="72.216797" xlink:href="#Times-Roman-101"/>
     <use x="116.601562" xlink:href="#Times-Roman-115"/>
     <use x="155.517578" xlink:href="#Times-Roman-99"/>
     <use x="199.902344" xlink:href="#Times-Roman-114"/>
     <use x="233.203125" xlink:href="#Times-Roman-105"/>
     <use x="260.986328" xlink:href="#Times-Roman-112"/>
     <use x="310.986328" xlink:href="#Times-Roman-116"/>
     <use x="338.769531" xlink:href="#Times-Roman-105"/>
     <use x="366.552734" xlink:href="#Times-Roman-118"/>
     <use x="416.552734" xlink:href="#Times-Roman-101"/>
     <use x="460.9375" xlink:href="#Times-Roman-110"/>
     <use x="510.9375" xlink:href="#Times-Roman-101"/>
     <use x="555.322266" xlink:href="#Times-Roman-115"/>
     <use x="594.238281" xlink:href="#Times-Roman-115"/>
     <use x="633.154297" xlink:href="#Times-Roman-58"/>
     <use x="660.9375" xlink:href="#Times-Roman-32"/>
     <use x="685.9375" xlink:href="#Times-Roman-111"/>
     <use x="735.9375" xlink:href="#Times-Roman-102"/>
     <use x="769.238281" xlink:href="#Times-Roman-102"/>
     <use x="802.539062" xlink:href="#Times-Roman-108"/>
     <use x="830.322266" xlink:href="#Times-Roman-105"/>
     <use x="858.105469" xlink:href="#Times-Roman-110"/>
     <use x="908.105469" xlink:href="#Times-Roman-101"/>
     <use x="952.490234" xlink:href="#Times-Roman-32"/>
     <use x="977.490234" xlink:href="#Times-Roman-118"/>
     <use x="1027.490234" xlink:href="#Times-Roman-115"/>
     <use x="1066.40625" xlink:href="#Times-Roman-46"/>
     <use x="1091.40625" xlink:href="#Times-Roman-32"/>
     <use x="1116.40625" xlink:href="#Times-Roman-122"/>
     <use x="1160.791016" xlink:href="#Times-Roman-101"/>
     <use x="1205.175781" xlink:href="#Times-Roman-114"/>
     <use x="1238.476562" xlink:href="#Times-Roman-111"/>
     <use x="1288.476562" xlink:href="#Times-Roman-45"/>
     <use x="1321.777344" xlink:href="#Times-Roman-115"/>
     <use x="1360.693359" xlink:href="#Times-Roman-104"/>
     <use x="1410.693359" xlink:href="#Times-Roman-111"/>
     <use x="1460.693359" xlink:href="#Times-Roman-116"/>
    </g>
   </g>
  </g>
 </g>
 <defs>
  <clipPath id="p7ce780861c">
   <rect height="122.31" width="181.35" x="29.25" y="19.44"/>
  </clipPath>
 </defs>
</svg>
