<?xml version="1.0" encoding="utf-8" standalone="no"?>
<!DOCTYPE svg PUBLIC "-//W3C//DTD SVG 1.1//EN"
  "http://www.w3.org/Graphics/SVG/1.1/DTD/svg11.dtd">
<!-- Created with matplotlib (https://matplotlib.org/) -->
<svg height="288pt" version="1.1" viewBox="0 0 486 288" width="486pt" xmlns="http://www.w3.org/2000/svg" xmlns:xlink="http://www.w3.org/1999/xlink">
 <defs>
  <style type="text/css">
*{stroke-linecap:butt;stroke-linejoin:round;white-space:pre;}
  </style>
 </defs>
 <g id="figure_1">
  <g id="patch_1">
   <path d="M 0 288 
L 486 288 
L 486 0 
L 0 0 
z
" style="fill:#ffffff;"/>
  </g>
  <g id="axes_1">
   <g id="patch_2">
    <path d="M 60.75 252 
L 437.4 252 
L 437.4 34.56 
L 60.75 34.56 
z
" style="fill:#ffffff;"/>
   </g>
   <g id="PolyCollection_1">
    <path clip-path="url(#pcade69a6f5)" d="M 210.27912 100.047089 
L 210.27912 104.997601 
L 206.180787 106.954637 
L 201.880158 109.105069 
L 197.384874 111.458334 
L 192.706188 114.02196 
L 187.859337 116.800967 
L 182.863553 119.79731 
L 177.74129 123.009779 
L 172.516896 126.434484 
L 167.215822 130.065403 
L 161.865285 133.894005 
L 156.495928 137.907684 
L 151.142751 142.088077 
L 145.84422 146.4107 
L 140.640274 150.845925 
L 135.570571 155.360143 
L 130.673298 159.916445 
L 125.984023 164.475265 
L 121.534222 168.995656 
L 117.349654 173.437342 
L 113.449196 177.763004 
L 109.844522 181.93995 
L 106.540387 185.94082 
L 103.534859 189.743978 
L 100.819444 193.334316 
L 98.379713 196.704087 
L 96.196754 199.852777 
L 94.249077 202.78581 
L 92.514352 205.512719 
L 90.970668 208.045457 
L 89.5973 210.397137 
L 88.375123 212.581186 
L 87.286774 214.610808 
L 86.316671 216.498656 
L 85.45095 218.25664 
L 84.677351 219.895827 
L 83.985077 221.426408 
L 83.364651 222.857696 
L 82.807768 224.198158 
L 82.30716 225.455461 
L 81.856466 226.636531 
L 81.45012 227.747609 
L 81.083245 228.794314 
L 80.751566 229.781706 
L 80.451328 230.714339 
L 80.179226 231.596314 
L 79.932349 232.431331 
L 79.708126 233.22273 
L 79.504281 233.973531 
L 79.318797 234.68647 
L 79.14988 235.364033 
L 78.995934 236.00848 
L 78.855534 236.621872 
L 78.727405 237.206092 
L 78.610408 237.762867 
L 78.503518 238.29378 
L 78.405814 238.80029 
L 78.316468 239.283742 
L 78.234732 239.74538 
L 78.15993 240.186357 
L 78.091452 240.607745 
L 78.028744 241.010539 
L 77.971305 241.395671 
L 77.91868 241.764007 
L 77.870455 242.116364 
L 77.870455 232.027434 
L 77.870455 232.027434 
L 77.91868 231.67669 
L 77.971305 231.310309 
L 78.028744 230.927517 
L 78.091452 230.527491 
L 78.15993 230.10935 
L 78.234732 229.672152 
L 78.316468 229.214889 
L 78.405814 228.736476 
L 78.503518 228.235743 
L 78.610408 227.711429 
L 78.727405 227.162171 
L 78.855534 226.586486 
L 78.995934 225.982767 
L 79.14988 225.349258 
L 79.318797 224.684042 
L 79.504281 223.98502 
L 79.708126 223.249886 
L 79.932349 222.476103 
L 80.179226 221.660875 
L 80.451328 220.801109 
L 80.751566 219.893383 
L 81.083245 218.933903 
L 81.45012 217.918456 
L 81.856466 216.842361 
L 82.30716 215.700417 
L 82.807768 214.486841 
L 83.364651 213.195214 
L 83.985077 211.818418 
L 84.677351 210.348586 
L 85.45095 208.777053 
L 86.316671 207.094328 
L 87.286774 205.290092 
L 88.375123 203.353228 
L 89.5973 201.271916 
L 90.970668 199.033798 
L 92.514352 196.626263 
L 94.249077 194.036874 
L 96.196754 191.254025 
L 98.379713 188.267906 
L 100.819444 185.071863 
L 103.534859 181.66417 
L 106.540387 178.049856 
L 109.844522 174.241824 
L 113.449196 170.260534 
L 117.349654 166.132537 
L 121.534222 161.88904 
L 125.984023 157.565025 
L 130.673298 153.198323 
L 135.570571 148.82811 
L 140.640274 144.493021 
L 145.84422 140.229469 
L 151.142751 136.070468 
L 156.495928 132.044844 
L 161.865285 128.176463 
L 167.215822 124.483468 
L 172.516896 120.978126 
L 177.74129 117.667849 
L 182.863553 114.556837 
L 187.859337 111.647201 
L 192.706188 108.939121 
L 197.384874 106.430513 
L 201.880158 104.116915 
L 206.180787 101.991798 
L 210.27912 100.047089 
z
" style="fill-opacity:0.3;"/>
   </g>
   <g id="PathCollection_1">
    <defs>
     <path d="M 0 2.8 
C 0.742569 2.8 1.454824 2.504974 1.979899 1.979899 
C 2.504974 1.454824 2.8 0.742569 2.8 0 
C 2.8 -0.742569 2.504974 -1.454824 1.979899 -1.979899 
C 1.454824 -2.504974 0.742569 -2.8 0 -2.8 
C -0.742569 -2.8 -1.454824 -2.504974 -1.979899 -1.979899 
C -2.504974 -1.454824 -2.8 -0.742569 -2.8 0 
C -2.8 0.742569 -2.504974 1.454824 -1.979899 1.979899 
C -1.454824 2.504974 -0.742569 2.8 0 2.8 
z
" id="mdfc8072be9" style="stroke:#0072b2;stroke-width:0.24;"/>
    </defs>
    <g clip-path="url(#pcade69a6f5)">
     <use style="fill:#0072b2;stroke:#0072b2;stroke-width:0.24;" x="111.02199" xlink:href="#mdfc8072be9" y="229.023262"/>
    </g>
   </g>
   <g id="PathCollection_2">
    <g clip-path="url(#pcade69a6f5)">
     <use style="fill:#0072b2;stroke:#0072b2;stroke-width:0.24;" x="144.661478" xlink:href="#mdfc8072be9" y="199.833287"/>
    </g>
   </g>
   <g id="PathCollection_3">
    <g clip-path="url(#pcade69a6f5)">
     <use style="fill:#0072b2;stroke:#0072b2;stroke-width:0.24;" x="178.79789" xlink:href="#mdfc8072be9" y="169.649613"/>
    </g>
   </g>
   <g id="PathCollection_4">
    <g clip-path="url(#pcade69a6f5)">
     <use style="fill:#0072b2;stroke:#0072b2;stroke-width:0.24;" x="213.013253" xlink:href="#mdfc8072be9" y="145.746149"/>
    </g>
   </g>
   <g id="PathCollection_5">
    <g clip-path="url(#pcade69a6f5)">
     <use style="fill:#0072b2;stroke:#0072b2;stroke-width:0.24;" x="281.573179" xlink:href="#mdfc8072be9" y="109.337652"/>
    </g>
   </g>
   <g id="PathCollection_6">
    <g clip-path="url(#pcade69a6f5)">
     <use style="fill:#0072b2;stroke:#0072b2;stroke-width:0.24;" x="350.594969" xlink:href="#mdfc8072be9" y="80.994792"/>
    </g>
   </g>
   <g id="PathCollection_7">
    <g clip-path="url(#pcade69a6f5)">
     <use style="fill:#0072b2;stroke:#0072b2;stroke-width:0.24;" x="417.837691" xlink:href="#mdfc8072be9" y="59.413602"/>
    </g>
   </g>
   <g id="PathCollection_8">
    <defs>
     <path d="M 0 2.8 
C 0.742569 2.8 1.454824 2.504974 1.979899 1.979899 
C 2.504974 1.454824 2.8 0.742569 2.8 0 
C 2.8 -0.742569 2.504974 -1.454824 1.979899 -1.979899 
C 1.454824 -2.504974 0.742569 -2.8 0 -2.8 
C -0.742569 -2.8 -1.454824 -2.504974 -1.979899 -1.979899 
C -2.504974 -1.454824 -2.8 -0.742569 -2.8 0 
C -2.8 0.742569 -2.504974 1.454824 -1.979899 1.979899 
C -1.454824 2.504974 -0.742569 2.8 0 2.8 
z
" id="m299ad50265" style="stroke:#009e73;stroke-width:0.24;"/>
    </defs>
    <g clip-path="url(#pcade69a6f5)">
     <use style="fill:#009e73;stroke:#009e73;stroke-width:0.24;" x="111.230282" xlink:href="#m299ad50265" y="216.677616"/>
    </g>
   </g>
   <g id="PathCollection_9">
    <defs>
     <path d="M 0 2.8 
C 0.742569 2.8 1.454824 2.504974 1.979899 1.979899 
C 2.504974 1.454824 2.8 0.742569 2.8 0 
C 2.8 -0.742569 2.504974 -1.454824 1.979899 -1.979899 
C 1.454824 -2.504974 0.742569 -2.8 0 -2.8 
C -0.742569 -2.8 -1.454824 -2.504974 -1.979899 -1.979899 
C -2.504974 -1.454824 -2.8 -0.742569 -2.8 0 
C -2.8 0.742569 -2.504974 1.454824 -1.979899 1.979899 
C -1.454824 2.504974 -0.742569 2.8 0 2.8 
z
" id="m20bdf0b668" style="stroke:#d55e00;stroke-width:0.24;"/>
    </defs>
    <g clip-path="url(#pcade69a6f5)">
     <use style="fill:#d55e00;stroke:#d55e00;stroke-width:0.24;" x="111.149667" xlink:href="#m20bdf0b668" y="216.231313"/>
    </g>
   </g>
   <g id="PathCollection_10">
    <defs>
     <path d="M 0 2.8 
C 0.742569 2.8 1.454824 2.504974 1.979899 1.979899 
C 2.504974 1.454824 2.8 0.742569 2.8 0 
C 2.8 -0.742569 2.504974 -1.454824 1.979899 -1.979899 
C 1.454824 -2.504974 0.742569 -2.8 0 -2.8 
C -0.742569 -2.8 -1.454824 -2.504974 -1.979899 -1.979899 
C -2.504974 -1.454824 -2.8 -0.742569 -2.8 0 
C -2.8 0.742569 -2.504974 1.454824 -1.979899 1.979899 
C -1.454824 2.504974 -0.742569 2.8 0 2.8 
z
" id="mc3a26d0510" style="stroke:#cc79a7;stroke-width:0.24;"/>
    </defs>
    <g clip-path="url(#pcade69a6f5)">
     <use style="fill:#cc79a7;stroke:#cc79a7;stroke-width:0.24;" x="110.763963" xlink:href="#mc3a26d0510" y="222.502311"/>
    </g>
   </g>
   <g id="PathCollection_11">
    <g clip-path="url(#pcade69a6f5)">
     <use style="fill:#009e73;stroke:#009e73;stroke-width:0.24;" x="145.418718" xlink:href="#m299ad50265" y="189.340145"/>
    </g>
   </g>
   <g id="PathCollection_12">
    <g clip-path="url(#pcade69a6f5)">
     <use style="fill:#d55e00;stroke:#d55e00;stroke-width:0.24;" x="144.934856" xlink:href="#m20bdf0b668" y="195.132189"/>
    </g>
   </g>
   <g id="PathCollection_13">
    <g clip-path="url(#pcade69a6f5)">
     <use style="fill:#cc79a7;stroke:#cc79a7;stroke-width:0.24;" x="145.609879" xlink:href="#mc3a26d0510" y="205.012033"/>
    </g>
   </g>
   <g id="PathCollection_14">
    <g clip-path="url(#pcade69a6f5)">
     <use style="fill:#009e73;stroke:#009e73;stroke-width:0.24;" x="179.660199" xlink:href="#m299ad50265" y="169.905369"/>
    </g>
   </g>
   <g id="PathCollection_15">
    <g clip-path="url(#pcade69a6f5)">
     <use style="fill:#d55e00;stroke:#d55e00;stroke-width:0.24;" x="178.640999" xlink:href="#m20bdf0b668" y="179.350495"/>
    </g>
   </g>
   <g id="PathCollection_16">
    <g clip-path="url(#pcade69a6f5)">
     <use style="fill:#cc79a7;stroke:#cc79a7;stroke-width:0.24;" x="178.955256" xlink:href="#mc3a26d0510" y="193.602186"/>
    </g>
   </g>
   <g id="PathCollection_17">
    <g clip-path="url(#pcade69a6f5)">
     <use style="fill:#009e73;stroke:#009e73;stroke-width:0.24;" x="213.251609" xlink:href="#m299ad50265" y="152.610351"/>
    </g>
   </g>
   <g id="PathCollection_18">
    <g clip-path="url(#pcade69a6f5)">
     <use style="fill:#d55e00;stroke:#d55e00;stroke-width:0.24;" x="212.500806" xlink:href="#m20bdf0b668" y="167.184364"/>
    </g>
   </g>
   <g id="PathCollection_19">
    <g clip-path="url(#pcade69a6f5)">
     <use style="fill:#cc79a7;stroke:#cc79a7;stroke-width:0.24;" x="213.524319" xlink:href="#mc3a26d0510" y="185.116173"/>
    </g>
   </g>
   <g id="PathCollection_20">
    <g clip-path="url(#pcade69a6f5)">
     <use style="fill:#009e73;stroke:#009e73;stroke-width:0.24;" x="280.42941" xlink:href="#m299ad50265" y="126.044001"/>
    </g>
   </g>
   <g id="PathCollection_21">
    <g clip-path="url(#pcade69a6f5)">
     <use style="fill:#d55e00;stroke:#d55e00;stroke-width:0.24;" x="281.0995" xlink:href="#m20bdf0b668" y="139.555037"/>
    </g>
   </g>
   <g id="PathCollection_22">
    <g clip-path="url(#pcade69a6f5)">
     <use style="fill:#cc79a7;stroke:#cc79a7;stroke-width:0.24;" x="280.969207" xlink:href="#mc3a26d0510" y="175.65719"/>
    </g>
   </g>
   <g id="PathCollection_23">
    <g clip-path="url(#pcade69a6f5)">
     <use style="fill:#009e73;stroke:#009e73;stroke-width:0.24;" x="348.233799" xlink:href="#m299ad50265" y="100.667114"/>
    </g>
   </g>
   <g id="PathCollection_24">
    <g clip-path="url(#pcade69a6f5)">
     <use style="fill:#d55e00;stroke:#d55e00;stroke-width:0.24;" x="348.781761" xlink:href="#m20bdf0b668" y="125.62838"/>
    </g>
   </g>
   <g id="PathCollection_25">
    <g clip-path="url(#pcade69a6f5)">
     <use style="fill:#cc79a7;stroke:#cc79a7;stroke-width:0.24;" x="348.332493" xlink:href="#mc3a26d0510" y="164.687018"/>
    </g>
   </g>
   <g id="PathCollection_26">
    <g clip-path="url(#pcade69a6f5)">
     <use style="fill:#009e73;stroke:#009e73;stroke-width:0.24;" x="416.929687" xlink:href="#m299ad50265" y="86.500439"/>
    </g>
   </g>
   <g id="PathCollection_27">
    <g clip-path="url(#pcade69a6f5)">
     <use style="fill:#d55e00;stroke:#d55e00;stroke-width:0.24;" x="417.481165" xlink:href="#m20bdf0b668" y="119.886705"/>
    </g>
   </g>
   <g id="PathCollection_28">
    <g clip-path="url(#pcade69a6f5)">
     <use style="fill:#cc79a7;stroke:#cc79a7;stroke-width:0.24;" x="414.235601" xlink:href="#mc3a26d0510" y="160.241018"/>
    </g>
   </g>
   <g id="PathCollection_29">
    <defs>
     <path d="M 0 -2.8 
L -2.8 2.8 
L 2.8 2.8 
z
" id="m918f5a7938" style="stroke:#f0e442;stroke-width:0.24;"/>
    </defs>
    <g clip-path="url(#pcade69a6f5)">
     <use style="fill:#f0e442;stroke:#f0e442;stroke-width:0.24;" x="111.42357" xlink:href="#m918f5a7938" y="206.793895"/>
    </g>
   </g>
   <g id="PathCollection_30">
    <g clip-path="url(#pcade69a6f5)">
     <use style="fill:#f0e442;stroke:#f0e442;stroke-width:0.24;" x="145.111916" xlink:href="#m918f5a7938" y="173.063885"/>
    </g>
   </g>
   <g id="PathCollection_31">
    <g clip-path="url(#pcade69a6f5)">
     <use style="fill:#f0e442;stroke:#f0e442;stroke-width:0.24;" x="178.251592" xlink:href="#m918f5a7938" y="147.404757"/>
    </g>
   </g>
   <g id="PathCollection_32">
    <g clip-path="url(#pcade69a6f5)">
     <use style="fill:#f0e442;stroke:#f0e442;stroke-width:0.24;" x="212.969207" xlink:href="#m918f5a7938" y="125.279704"/>
    </g>
   </g>
   <g id="PathCollection_33">
    <g clip-path="url(#pcade69a6f5)">
     <use style="fill:#f0e442;stroke:#f0e442;stroke-width:0.24;" x="280.274461" xlink:href="#m918f5a7938" y="91.250412"/>
    </g>
   </g>
   <g id="PathCollection_34">
    <g clip-path="url(#pcade69a6f5)">
     <use style="fill:#f0e442;stroke:#f0e442;stroke-width:0.24;" x="349.057175" xlink:href="#m918f5a7938" y="65.430993"/>
    </g>
   </g>
   <g id="PathCollection_35">
    <g clip-path="url(#pcade69a6f5)">
     <use style="fill:#f0e442;stroke:#f0e442;stroke-width:0.24;" x="416.675629" xlink:href="#m918f5a7938" y="47.064321"/>
    </g>
   </g>
   <g id="matplotlib.axis_1">
    <g id="xtick_1">
     <g id="line2d_1">
      <defs>
       <path d="M 0 0 
L 0 3.5 
" id="m9757cb522f" style="stroke:#000000;stroke-width:0.8;"/>
      </defs>
      <g>
       <use style="stroke:#000000;stroke-width:0.8;" x="77.335768" xlink:href="#m9757cb522f" y="252"/>
      </g>
     </g>
     <g id="text_1">
      <!-- 0 -->
      <defs>
       <path d="M 23.921875 1.8125 
Q 31.109375 1.8125 33.78125 9.671875 
Q 36.46875 17.53125 36.46875 32.421875 
Q 36.46875 44.28125 34.859375 51.375 
Q 31.84375 64.546875 23.53125 64.546875 
Q 15.234375 64.546875 12.15625 50.984375 
Q 10.546875 43.75 10.546875 31.9375 
Q 10.546875 20.84375 12.203125 14.203125 
Q 15.328125 1.8125 23.921875 1.8125 
z
M 23.78125 67.1875 
Q 35.015625 67.1875 41.21875 55.421875 
Q 46.140625 45.90625 46.140625 33.546875 
Q 46.140625 23.828125 43.109375 15.234375 
Q 37.40625 -0.921875 23.34375 -0.921875 
Q 13.71875 -0.921875 7.515625 7.8125 
Q 0.875 17.140625 0.875 33.15625 
Q 0.875 45.75 5.328125 54.828125 
Q 11.328125 67.1875 23.78125 67.1875 
z
" id="Times-Roman-48"/>
      </defs>
      <g transform="translate(75.600768 265.858237)scale(0.0694 -0.0694)">
       <use xlink:href="#Times-Roman-48"/>
      </g>
     </g>
    </g>
    <g id="xtick_2">
     <g id="line2d_2">
      <g>
       <use style="stroke:#000000;stroke-width:0.8;" x="145.222171" xlink:href="#m9757cb522f" y="252"/>
      </g>
     </g>
     <g id="text_2">
      <!-- 4 -->
      <defs>
       <path d="M 29.15625 57.03125 
L 5.171875 23.140625 
L 29.15625 23.140625 
z
M 32.375 67.09375 
L 37.015625 67.09375 
L 37.015625 23.140625 
L 47.21875 23.140625 
L 47.21875 16.65625 
L 37.015625 16.65625 
L 37.015625 0 
L 29.25 0 
L 29.25 16.65625 
L 1.125 16.65625 
L 1.125 23.140625 
z
" id="Times-Roman-52"/>
      </defs>
      <g transform="translate(143.487171 265.858237)scale(0.0694 -0.0694)">
       <use xlink:href="#Times-Roman-52"/>
      </g>
     </g>
    </g>
    <g id="xtick_3">
     <g id="line2d_3">
      <g>
       <use style="stroke:#000000;stroke-width:0.8;" x="213.108574" xlink:href="#m9757cb522f" y="252"/>
      </g>
     </g>
     <g id="text_3">
      <!-- 8 -->
      <defs>
       <path d="M 25.140625 1.65625 
Q 30.765625 1.65625 33.640625 4.78125 
Q 36.53125 7.90625 36.53125 12.59375 
Q 36.53125 17.921875 33.46875 21.21875 
Q 30.421875 24.515625 20.953125 31.203125 
Q 16.75 28.5625 14.84375 24.359375 
Q 12.9375 20.171875 12.9375 16.265625 
Q 12.9375 9.578125 16.375 5.609375 
Q 19.828125 1.65625 25.140625 1.65625 
z
M 25.78125 38.96875 
Q 30.375 42.1875 32.125 44.390625 
Q 35.15625 48.140625 35.15625 53.46875 
Q 35.15625 58.109375 32.296875 61.34375 
Q 29.4375 64.59375 23.640625 64.59375 
Q 19.140625 64.59375 16.203125 61.765625 
Q 13.28125 58.9375 13.28125 54.890625 
Q 13.28125 50.296875 16.71875 46.359375 
Q 20.171875 42.4375 25.78125 38.96875 
z
M 18.265625 33.296875 
Q 11.8125 38.484375 9.46875 41.546875 
Q 5.859375 46.234375 5.859375 51.90625 
Q 5.859375 58.34375 11.203125 62.828125 
Q 16.546875 67.328125 25.09375 67.328125 
Q 32.953125 67.328125 37.59375 63.078125 
Q 42.234375 58.84375 42.234375 53.21875 
Q 42.234375 47.515625 37.5 42.96875 
Q 34.765625 40.375 28.65625 37.015625 
Q 36.96875 30.859375 40.546875 26.296875 
Q 44.140625 21.734375 44.140625 15.53125 
Q 44.140625 8.5 38.84375 3.703125 
Q 33.546875 -1.078125 24.65625 -1.078125 
Q 16.703125 -1.078125 11.015625 3.34375 
Q 5.328125 7.765625 5.328125 14.984375 
Q 5.328125 21.1875 9.28125 25.921875 
Q 11.859375 29 18.265625 33.296875 
z
" id="Times-Roman-56"/>
      </defs>
      <g transform="translate(211.373574 265.858237)scale(0.0694 -0.0694)">
       <use xlink:href="#Times-Roman-56"/>
      </g>
     </g>
    </g>
    <g id="xtick_4">
     <g id="line2d_4">
      <g>
       <use style="stroke:#000000;stroke-width:0.8;" x="280.994978" xlink:href="#m9757cb522f" y="252"/>
      </g>
     </g>
     <g id="text_4">
      <!-- 12 -->
      <defs>
       <path d="M 29.59375 67.09375 
Q 29.78125 66.84375 29.796875 66.71875 
Q 29.828125 66.609375 29.828125 66.15625 
L 29.828125 7.375 
Q 29.828125 3.609375 31.828125 2.578125 
Q 33.84375 1.5625 39.3125 1.375 
L 39.3125 0 
L 11.765625 0 
L 11.765625 1.46875 
Q 17.671875 1.765625 19.484375 3.078125 
Q 21.296875 4.390625 21.296875 8.796875 
L 21.296875 54 
Q 21.296875 56.34375 20.703125 57.5625 
Q 20.125 58.796875 18.171875 58.796875 
Q 16.890625 58.796875 14.859375 58.078125 
Q 12.84375 57.375 11.078125 56.59375 
L 11.078125 57.953125 
L 29 67.09375 
L 29.59375 67.09375 
z
" id="Times-Roman-49"/>
       <path d="M 2.984375 1.125 
Q 20.84375 19.671875 27.234375 28.359375 
Q 33.640625 37.0625 33.640625 45.3125 
Q 33.640625 52.546875 29.734375 56.328125 
Q 25.828125 60.109375 20.40625 60.109375 
Q 13.71875 60.109375 9.578125 55.21875 
Q 7.28125 52.546875 5.171875 46.96875 
L 3.078125 47.40625 
Q 5.515625 58.640625 11.34375 63.015625 
Q 17.1875 67.390625 23.875 67.390625 
Q 32.125 67.390625 37.21875 62.1875 
Q 42.328125 56.984375 42.328125 49.46875 
Q 42.328125 41.453125 36.8125 34.03125 
Q 31.296875 26.609375 12.84375 7.625 
L 35.25 7.625 
Q 39.9375 7.625 41.84375 8.734375 
Q 43.75 9.859375 46.140625 14.203125 
L 47.40625 13.625 
L 42 0 
L 2.984375 0 
z
" id="Times-Roman-50"/>
      </defs>
      <g transform="translate(277.524978 265.858237)scale(0.0694 -0.0694)">
       <use xlink:href="#Times-Roman-49"/>
       <use x="50" xlink:href="#Times-Roman-50"/>
      </g>
     </g>
    </g>
    <g id="xtick_5">
     <g id="line2d_5">
      <g>
       <use style="stroke:#000000;stroke-width:0.8;" x="348.881381" xlink:href="#m9757cb522f" y="252"/>
      </g>
     </g>
     <g id="text_5">
      <!-- 16 -->
      <defs>
       <path d="M 46.78125 22.21875 
Q 46.78125 13.28125 41.03125 6.09375 
Q 35.296875 -1.078125 26.125 -1.078125 
Q 17.53125 -1.078125 10.46875 6.984375 
Q 3.421875 15.046875 3.421875 28.421875 
Q 3.421875 45.65625 17.09375 58.015625 
Q 29.296875 68.359375 44.53125 68.359375 
L 44.78125 66.75 
Q 38.671875 65.625 34.25 63.6875 
Q 29.828125 61.765625 26.375 58.296875 
Q 22.796875 54.78125 19.671875 49.359375 
Q 16.546875 43.953125 15.375 38.625 
Q 18.40625 40.484375 20.609375 41.359375 
Q 24.515625 42.921875 28.46875 42.921875 
Q 36.234375 42.921875 41.5 37.546875 
Q 46.78125 32.171875 46.78125 22.21875 
z
M 37.84375 18.453125 
Q 37.84375 24.953125 35.796875 29.984375 
Q 32.375 38.375 24.171875 38.375 
Q 16.609375 38.375 14.109375 33.890625 
Q 12.640625 31.25 12.640625 25.09375 
Q 12.640625 17.140625 16.03125 9.515625 
Q 19.4375 1.90625 26.765625 1.90625 
Q 32.5625 1.90625 35.203125 6.859375 
Q 37.84375 11.8125 37.84375 18.453125 
z
" id="Times-Roman-54"/>
      </defs>
      <g transform="translate(345.411381 265.858237)scale(0.0694 -0.0694)">
       <use xlink:href="#Times-Roman-49"/>
       <use x="50" xlink:href="#Times-Roman-54"/>
      </g>
     </g>
    </g>
    <g id="xtick_6">
     <g id="line2d_6">
      <g>
       <use style="stroke:#000000;stroke-width:0.8;" x="416.767784" xlink:href="#m9757cb522f" y="252"/>
      </g>
     </g>
     <g id="text_6">
      <!-- 20 -->
      <g transform="translate(413.297784 265.858237)scale(0.0694 -0.0694)">
       <use xlink:href="#Times-Roman-50"/>
       <use x="50" xlink:href="#Times-Roman-48"/>
      </g>
     </g>
    </g>
    <g id="text_7">
     <!-- $\operatorname{KL}(\pi,\rho)$ -->
     <defs>
      <path d="M 3.078125 0 
L 3.078125 3.515625 
Q 13.375 3.515625 13.375 6.6875 
L 13.375 61.625 
Q 13.375 64.796875 3.078125 64.796875 
L 3.078125 68.3125 
L 33.015625 68.3125 
L 33.015625 64.796875 
Q 22.703125 64.796875 22.703125 61.625 
L 22.703125 29.203125 
L 53.609375 58.890625 
Q 54.890625 60.25 54.890625 61.625 
Q 54.890625 63.1875 53.546875 63.984375 
Q 52.203125 64.796875 50.484375 64.796875 
L 50.484375 68.3125 
L 72.21875 68.3125 
L 72.21875 64.796875 
Q 64.015625 64.796875 57.8125 58.890625 
L 40.09375 41.890625 
L 62.015625 9.421875 
Q 64.703125 5.46875 66.71875 4.484375 
Q 68.75 3.515625 73.578125 3.515625 
L 73.578125 0 
L 47.40625 0 
L 47.40625 3.515625 
Q 49.8125 3.515625 51.4375 4 
Q 53.078125 4.5 53.078125 6.296875 
Q 53.078125 7.515625 51.8125 9.421875 
L 33.890625 35.984375 
L 22.703125 25.203125 
L 22.703125 6.6875 
Q 22.703125 3.515625 33.015625 3.515625 
L 33.015625 0 
z
" id="Cmr10-75"/>
      <path d="M 3.078125 0 
L 3.078125 3.515625 
Q 13.375 3.515625 13.375 6.6875 
L 13.375 61.625 
Q 13.375 64.796875 3.078125 64.796875 
L 3.078125 68.3125 
L 35.5 68.3125 
L 35.5 64.796875 
Q 22.703125 64.796875 22.703125 61.625 
L 22.703125 6.6875 
Q 22.703125 4.546875 23.921875 4.03125 
Q 25.140625 3.515625 27.78125 3.515625 
L 35.5 3.515625 
Q 42.96875 3.515625 47.015625 6.25 
Q 51.078125 8.984375 52.75 13.6875 
Q 54.4375 18.40625 55.328125 26.21875 
L 58.203125 26.21875 
L 55.421875 0 
z
" id="Cmr10-76"/>
      <path d="M 31 -24.8125 
Q 25.4375 -20.40625 21.40625 -14.71875 
Q 17.390625 -9.03125 14.8125 -2.578125 
Q 12.25 3.859375 10.984375 10.890625 
Q 9.71875 17.921875 9.71875 25 
Q 9.71875 32.171875 10.984375 39.203125 
Q 12.25 46.234375 14.859375 52.734375 
Q 17.484375 59.234375 21.53125 64.890625 
Q 25.59375 70.5625 31 74.8125 
Q 31 75 31.5 75 
L 32.421875 75 
Q 32.71875 75 32.953125 74.734375 
Q 33.203125 74.46875 33.203125 74.125 
Q 33.203125 73.6875 33.015625 73.484375 
Q 28.125 68.703125 24.875 63.234375 
Q 21.625 57.765625 19.640625 51.578125 
Q 17.671875 45.40625 16.796875 38.78125 
Q 15.921875 32.171875 15.921875 25 
Q 15.921875 -6.78125 32.90625 -23.296875 
Q 33.203125 -23.578125 33.203125 -24.125 
Q 33.203125 -24.359375 32.9375 -24.671875 
Q 32.671875 -25 32.421875 -25 
L 31.5 -25 
Q 31 -25 31 -24.8125 
z
" id="Cmr10-40"/>
      <path d="M 10.109375 1.703125 
Q 10.109375 2.25 10.5 3.328125 
Q 13.28125 9.125 15.6875 14.71875 
Q 18.109375 20.3125 20.03125 25.609375 
Q 21.96875 30.90625 23.578125 36.921875 
L 17.1875 36.921875 
Q 13.53125 36.921875 10.34375 34.625 
Q 7.171875 32.328125 5.078125 28.8125 
Q 4.890625 28.421875 4.5 28.421875 
L 3.328125 28.421875 
Q 2.390625 28.421875 2.390625 29.390625 
Q 2.390625 29.59375 2.59375 29.984375 
Q 5.859375 35.546875 9.59375 39.328125 
Q 13.328125 43.109375 18.015625 43.109375 
L 54.296875 43.109375 
Q 55.328125 43.109375 56.046875 42.421875 
Q 56.78125 41.75 56.78125 40.578125 
Q 56.78125 39.109375 55.734375 38.015625 
Q 54.6875 36.921875 53.21875 36.921875 
L 40.484375 36.921875 
Q 38.875 29.046875 38.71875 21.578125 
Q 38.71875 11.96875 42.09375 4.203125 
Q 42.390625 3.609375 42.390625 2.984375 
Q 42.390625 1.90625 41.75 0.96875 
Q 41.109375 0.046875 40.109375 -0.53125 
Q 39.109375 -1.125 37.984375 -1.125 
Q 35.359375 -1.125 34.375 3.171875 
Q 33.40625 7.46875 33.40625 11.53125 
Q 33.40625 17.234375 34.375 22.53125 
Q 35.359375 27.828125 37.5 36.921875 
L 26.609375 36.921875 
Q 18.703125 4.890625 17.09375 1.609375 
Q 15.671875 -1.125 13.1875 -1.125 
Q 11.96875 -1.125 11.03125 -0.3125 
Q 10.109375 0.484375 10.109375 1.703125 
z
" id="Cmmi10-188"/>
      <path d="M 9.90625 -18.015625 
Q 9.90625 -17.578125 10.296875 -17.1875 
Q 13.921875 -13.71875 15.921875 -9.171875 
Q 17.921875 -4.640625 17.921875 0.390625 
L 17.921875 1.609375 
Q 16.3125 0 13.921875 0 
Q 11.625 0 10.015625 1.609375 
Q 8.40625 3.21875 8.40625 5.515625 
Q 8.40625 7.859375 10.015625 9.421875 
Q 11.625 10.984375 13.921875 10.984375 
Q 17.484375 10.984375 19 7.6875 
Q 20.515625 4.390625 20.515625 0.390625 
Q 20.515625 -5.171875 18.28125 -10.171875 
Q 16.0625 -15.1875 12.015625 -19.1875 
Q 11.625 -19.390625 11.375 -19.390625 
Q 10.890625 -19.390625 10.390625 -18.9375 
Q 9.90625 -18.5 9.90625 -18.015625 
z
" id="Cmmi10-59"/>
      <path d="M 2.78125 -18.796875 
Q 2.78125 -18.21875 2.875 -18.015625 
L 12.796875 21.921875 
Q 14.203125 27.296875 17.640625 32.4375 
Q 21.09375 37.59375 25.96875 40.890625 
Q 30.859375 44.1875 36.28125 44.1875 
Q 40.625 44.1875 43.875 41.921875 
Q 47.125 39.65625 48.75 35.96875 
Q 50.390625 32.28125 50.390625 27.875 
Q 50.390625 23.046875 48.40625 17.875 
Q 46.4375 12.703125 42.9375 8.40625 
Q 39.453125 4.109375 34.90625 1.484375 
Q 30.375 -1.125 25.390625 -1.125 
Q 22.46875 -1.125 19.875 0.609375 
Q 17.28125 2.34375 15.828125 5.171875 
L 9.90625 -18.40625 
Q 9.625 -19.828125 8.453125 -20.703125 
Q 7.28125 -21.578125 5.8125 -21.578125 
Q 4.59375 -21.578125 3.6875 -20.8125 
Q 2.78125 -20.0625 2.78125 -18.796875 
z
M 25.59375 1.515625 
Q 30.90625 1.515625 34.828125 6.953125 
Q 38.765625 12.40625 40.84375 19.75 
Q 42.921875 27.09375 42.921875 32.171875 
Q 42.921875 35.984375 41.25 38.796875 
Q 39.59375 41.609375 36.078125 41.609375 
Q 31.734375 41.609375 28.40625 38.3125 
Q 25.09375 35.015625 23.09375 30.5625 
Q 21.09375 26.125 19.828125 21.296875 
L 17.09375 10.109375 
Q 17.71875 6.5 19.9375 4 
Q 22.171875 1.515625 25.59375 1.515625 
z
" id="Cmmi10-189"/>
      <path d="M 6.5 -25 
Q 5.609375 -25 5.609375 -24.125 
Q 5.609375 -23.6875 5.8125 -23.484375 
Q 22.90625 -6.78125 22.90625 25 
Q 22.90625 56.78125 6 73.296875 
Q 5.609375 73.53125 5.609375 74.125 
Q 5.609375 74.46875 5.875 74.734375 
Q 6.15625 75 6.5 75 
L 7.421875 75 
Q 7.71875 75 7.90625 74.8125 
Q 15.09375 69.140625 19.875 61.03125 
Q 24.65625 52.9375 26.875 43.75 
Q 29.109375 34.578125 29.109375 25 
Q 29.109375 17.921875 27.90625 11.0625 
Q 26.703125 4.203125 24.09375 -2.453125 
Q 21.484375 -9.125 17.484375 -14.765625 
Q 13.484375 -20.40625 7.90625 -24.8125 
Q 7.71875 -25 7.421875 -25 
z
" id="Cmr10-41"/>
     </defs>
     <g transform="translate(232.707 277.969856)scale(0.088 -0.088)">
      <use xlink:href="#Cmr10-75"/>
      <use transform="translate(77.685547 0)" xlink:href="#Cmr10-76"/>
      <use transform="translate(140.185547 0)" xlink:href="#Cmr10-40"/>
      <use transform="translate(179.003906 0)" xlink:href="#Cmmi10-188"/>
      <use transform="translate(235.986328 0)" xlink:href="#Cmmi10-59"/>
      <use transform="translate(281.230469 0)" xlink:href="#Cmmi10-189"/>
      <use transform="translate(332.939453 0)" xlink:href="#Cmr10-41"/>
     </g>
    </g>
   </g>
   <g id="matplotlib.axis_2">
    <g id="ytick_1">
     <g id="line2d_7">
      <defs>
       <path d="M 0 0 
L -3.5 0 
" id="mf99eaa625f" style="stroke:#000000;stroke-width:0.8;"/>
      </defs>
      <g>
       <use style="stroke:#000000;stroke-width:0.8;" x="60.75" xlink:href="#mf99eaa625f" y="248.90606"/>
      </g>
     </g>
     <g id="text_8">
      <!-- 0 -->
      <g transform="translate(48.18 251.285179)scale(0.0694 -0.0694)">
       <use xlink:href="#Times-Roman-48"/>
      </g>
     </g>
    </g>
    <g id="ytick_2">
     <g id="line2d_8">
      <g>
       <use style="stroke:#000000;stroke-width:0.8;" x="60.75" xlink:href="#mf99eaa625f" y="217.291677"/>
      </g>
     </g>
     <g id="text_9">
      <!-- 1 -->
      <g transform="translate(48.18 219.670796)scale(0.0694 -0.0694)">
       <use xlink:href="#Times-Roman-49"/>
      </g>
     </g>
    </g>
    <g id="ytick_3">
     <g id="line2d_9">
      <g>
       <use style="stroke:#000000;stroke-width:0.8;" x="60.75" xlink:href="#mf99eaa625f" y="185.677294"/>
      </g>
     </g>
     <g id="text_10">
      <!-- 2 -->
      <g transform="translate(48.18 188.056413)scale(0.0694 -0.0694)">
       <use xlink:href="#Times-Roman-50"/>
      </g>
     </g>
    </g>
    <g id="ytick_4">
     <g id="line2d_10">
      <g>
       <use style="stroke:#000000;stroke-width:0.8;" x="60.75" xlink:href="#mf99eaa625f" y="154.062911"/>
      </g>
     </g>
     <g id="text_11">
      <!-- 3 -->
      <defs>
       <path d="M 7.765625 8.5 
Q 10.453125 8.5 14.859375 5.71875 
Q 19.28125 2.9375 22.359375 2.9375 
Q 29.203125 2.9375 32.515625 7.546875 
Q 35.84375 12.15625 35.84375 17.578125 
Q 35.84375 22.796875 33.15625 26.765625 
Q 28.609375 33.453125 17.828125 33.453125 
Q 17.1875 33.453125 16.59375 33.421875 
Q 16.015625 33.40625 15.234375 33.296875 
L 15.140625 34.578125 
Q 22.953125 37.40625 27.4375 41.0625 
Q 31.9375 44.734375 31.9375 50.734375 
Q 31.9375 56.0625 28.390625 58.84375 
Q 24.859375 61.625 20.3125 61.625 
Q 14.9375 61.625 10.84375 57.671875 
Q 8.59375 55.515625 6 51.03125 
L 4.5 51.375 
Q 6.453125 58.796875 11.765625 63.234375 
Q 17.09375 67.671875 24.078125 67.671875 
Q 31.546875 67.671875 35.625 63.5625 
Q 39.703125 59.46875 39.703125 54.109375 
Q 39.703125 49.359375 36.328125 45.40625 
Q 34.421875 43.171875 30.421875 40.375 
Q 35.109375 38.375 37.9375 35.6875 
Q 43.265625 30.5625 43.265625 22.703125 
Q 43.265625 13.421875 35.953125 6.34375 
Q 28.65625 -0.734375 15.1875 -0.734375 
Q 9.1875 -0.734375 6.765625 1.046875 
Q 4.34375 2.828125 4.34375 4.890625 
Q 4.34375 6.15625 5.140625 7.328125 
Q 5.953125 8.5 7.765625 8.5 
z
" id="Times-Roman-51"/>
      </defs>
      <g transform="translate(48.18 156.442029)scale(0.0694 -0.0694)">
       <use xlink:href="#Times-Roman-51"/>
      </g>
     </g>
    </g>
    <g id="ytick_5">
     <g id="line2d_11">
      <g>
       <use style="stroke:#000000;stroke-width:0.8;" x="60.75" xlink:href="#mf99eaa625f" y="122.448528"/>
      </g>
     </g>
     <g id="text_12">
      <!-- 4 -->
      <g transform="translate(48.18 124.827646)scale(0.0694 -0.0694)">
       <use xlink:href="#Times-Roman-52"/>
      </g>
     </g>
    </g>
    <g id="ytick_6">
     <g id="line2d_12">
      <g>
       <use style="stroke:#000000;stroke-width:0.8;" x="60.75" xlink:href="#mf99eaa625f" y="90.834144"/>
      </g>
     </g>
     <g id="text_13">
      <!-- 5 -->
      <defs>
       <path d="M 7.46875 8.9375 
Q 10.25 8.9375 14.765625 5.78125 
Q 19.28125 2.640625 21.734375 2.640625 
Q 27.34375 2.640625 31.546875 7.59375 
Q 35.75 12.546875 35.75 19.78125 
Q 35.75 32.421875 22.265625 37.984375 
Q 14.796875 41.0625 8.34375 41.0625 
Q 7.28125 41.0625 7 41.140625 
Q 6.734375 41.21875 6.34375 41.65625 
Q 6.453125 42.046875 6.515625 42.3125 
Q 6.59375 42.578125 6.6875 42.828125 
L 17.328125 66.15625 
L 38.28125 66.15625 
Q 39.84375 66.15625 40.6875 66.6875 
Q 41.546875 67.234375 42.921875 68.703125 
L 43.703125 68.015625 
L 39.890625 58.984375 
Q 39.703125 58.546875 38.8125 58.421875 
Q 37.9375 58.296875 36.921875 58.296875 
L 18.015625 58.296875 
L 13.875 49.75 
Q 21.875 48.390625 25.59375 47.171875 
Q 31.6875 45.125 35.796875 41.109375 
Q 39.3125 37.640625 41.109375 33.3125 
Q 42.921875 29 42.921875 24.171875 
Q 42.921875 13.375 35.234375 6.140625 
Q 27.546875 -1.078125 15.765625 -1.078125 
Q 10.984375 -1.078125 8.0625 -0.140625 
Q 3.171875 1.375 3.171875 5.28125 
Q 3.171875 6.734375 4.21875 7.828125 
Q 5.28125 8.9375 7.46875 8.9375 
z
" id="Times-Roman-53"/>
      </defs>
      <g transform="translate(48.18 93.213263)scale(0.0694 -0.0694)">
       <use xlink:href="#Times-Roman-53"/>
      </g>
     </g>
    </g>
    <g id="ytick_7">
     <g id="line2d_13">
      <g>
       <use style="stroke:#000000;stroke-width:0.8;" x="60.75" xlink:href="#mf99eaa625f" y="59.219761"/>
      </g>
     </g>
     <g id="text_14">
      <!-- 6 -->
      <g transform="translate(48.18 61.59888)scale(0.0694 -0.0694)">
       <use xlink:href="#Times-Roman-54"/>
      </g>
     </g>
    </g>
    <g id="text_15">
     <!-- Mean reward -->
     <defs>
      <path d="M 1.125 1.8125 
Q 7.328125 2.4375 9.078125 4.609375 
Q 10.84375 6.78125 10.84375 14.703125 
L 10.84375 55.328125 
Q 10.84375 60.75 9.125 62.375 
Q 7.421875 64.015625 1.375 64.3125 
L 1.375 66.15625 
L 21.140625 66.15625 
L 44.28125 15.71875 
L 66.40625 66.15625 
L 86.328125 66.15625 
L 86.328125 64.3125 
Q 80.765625 63.921875 79.15625 62.28125 
Q 77.546875 60.640625 77.546875 55.328125 
L 77.546875 10.84375 
Q 77.546875 5.375 79.15625 3.828125 
Q 80.765625 2.296875 86.328125 1.8125 
L 86.328125 0 
L 58.296875 0 
L 58.296875 1.8125 
Q 64.359375 2.296875 65.84375 3.984375 
Q 67.328125 5.671875 67.328125 12.015625 
L 67.328125 56.9375 
L 41.75 0 
L 40.375 0 
L 15.234375 54.59375 
L 15.234375 14.703125 
Q 15.234375 6.5 17.625 4 
Q 19.1875 2.390625 24.609375 1.8125 
L 24.609375 0 
L 1.125 0 
z
" id="Times-Roman-77"/>
      <path d="M 22.90625 45.796875 
Q 29.78125 45.796875 34.953125 41.03125 
Q 40.140625 36.28125 40.140625 27.546875 
L 9.125 27.546875 
Q 9.625 16.21875 14.25 11.03125 
Q 18.890625 5.859375 25.25 5.859375 
Q 30.375 5.859375 33.890625 8.546875 
Q 37.40625 11.234375 40.375 16.15625 
L 42.09375 15.578125 
Q 40.09375 9.375 34.59375 4.09375 
Q 29.109375 -1.171875 21.140625 -1.171875 
Q 11.96875 -1.171875 6.953125 5.765625 
Q 1.953125 12.703125 1.953125 21.734375 
Q 1.953125 31.546875 7.765625 38.671875 
Q 13.578125 45.796875 22.90625 45.796875 
z
M 20.0625 42.234375 
Q 14.5 42.234375 11.578125 37.3125 
Q 10.015625 34.671875 9.328125 30.671875 
L 29.9375 30.671875 
Q 29.390625 35.546875 28.078125 37.9375 
Q 25.6875 42.234375 20.0625 42.234375 
z
M 22.265625 45.796875 
z
" id="Times-Roman-101"/>
      <path d="M 28.65625 27.046875 
Q 23.046875 25.203125 19.390625 22.953125 
Q 12.359375 18.609375 12.359375 13.09375 
Q 12.359375 8.640625 15.28125 6.546875 
Q 17.1875 5.171875 19.53125 5.171875 
Q 22.75 5.171875 25.703125 6.984375 
Q 28.65625 8.796875 28.65625 11.578125 
z
M 3.65625 9.71875 
Q 3.65625 16.796875 10.75 21.53125 
Q 15.234375 24.46875 28.65625 29.5 
L 28.65625 33.640625 
Q 28.65625 38.625 27.6875 40.578125 
Q 26.03125 43.84375 20.796875 43.84375 
Q 18.3125 43.84375 16.0625 42.578125 
Q 13.8125 41.265625 13.8125 38.96875 
Q 13.8125 38.375 14.0625 36.984375 
Q 14.3125 35.59375 14.3125 35.203125 
Q 14.3125 32.46875 12.5 31.390625 
Q 11.46875 30.765625 10.0625 30.765625 
Q 7.859375 30.765625 6.6875 32.203125 
Q 5.515625 33.640625 5.515625 35.40625 
Q 5.515625 38.8125 9.734375 42.546875 
Q 13.96875 46.296875 22.125 46.296875 
Q 31.59375 46.296875 34.96875 40.140625 
Q 36.765625 36.765625 36.765625 30.328125 
L 36.765625 10.75 
Q 36.765625 7.90625 37.15625 6.84375 
Q 37.796875 4.9375 39.796875 4.9375 
Q 40.921875 4.9375 41.65625 5.265625 
Q 42.390625 5.609375 44.1875 6.9375 
L 44.1875 4.390625 
Q 42.625 2.484375 40.828125 1.265625 
Q 38.09375 -0.59375 35.25 -0.59375 
Q 31.9375 -0.59375 30.4375 1.5625 
Q 28.953125 3.71875 28.8125 6.6875 
Q 25.09375 3.46875 22.46875 1.90625 
Q 18.015625 -0.734375 14.015625 -0.734375 
Q 9.8125 -0.734375 6.734375 2.21875 
Q 3.65625 5.171875 3.65625 9.71875 
z
M 22.265625 46.296875 
z
" id="Times-Roman-97"/>
      <path d="M 1.8125 1.375 
Q 5.28125 1.8125 6.671875 3.09375 
Q 8.0625 4.390625 8.0625 8.890625 
L 8.0625 33.640625 
Q 8.0625 36.765625 7.46875 38.03125 
Q 6.546875 39.890625 3.65625 39.890625 
Q 3.21875 39.890625 2.75 39.84375 
Q 2.296875 39.796875 1.609375 39.703125 
L 1.609375 41.40625 
Q 3.609375 42 11.078125 44.4375 
L 15.671875 45.953125 
Q 16.015625 45.953125 16.078125 45.703125 
Q 16.15625 45.453125 16.15625 45.015625 
L 16.15625 37.84375 
Q 20.65625 42.046875 23.1875 43.609375 
Q 27 46 31.109375 46 
Q 34.421875 46 37.15625 44.09375 
Q 42.4375 40.375 42.4375 30.859375 
L 42.4375 8.0625 
Q 42.4375 4.546875 43.84375 2.984375 
Q 45.265625 1.421875 48.578125 1.375 
L 48.578125 0 
L 27.734375 0 
L 27.734375 1.375 
Q 31.296875 1.859375 32.703125 3.34375 
Q 34.125 4.828125 34.125 9.8125 
L 34.125 30.671875 
Q 34.125 34.859375 32.5625 37.609375 
Q 31 40.375 26.8125 40.375 
Q 23.921875 40.375 20.953125 38.421875 
Q 19.28125 37.3125 16.65625 34.71875 
L 16.65625 7.375 
Q 16.65625 3.859375 18.21875 2.65625 
Q 19.78125 1.46875 23.140625 1.375 
L 23.140625 0 
L 1.8125 0 
z
M 25.046875 46 
z
" id="Times-Roman-110"/>
      <path id="Times-Roman-32"/>
      <path d="M 0.4375 1.609375 
Q 4.9375 2 6.390625 3.1875 
Q 7.859375 4.390625 7.859375 8.296875 
L 7.859375 30.328125 
Q 7.859375 35.15625 6.953125 37.234375 
Q 6.0625 39.3125 3.65625 39.3125 
Q 3.171875 39.3125 2.359375 39.1875 
Q 1.5625 39.0625 0.6875 38.875 
L 0.6875 40.484375 
Q 3.46875 41.453125 6.390625 42.46875 
Q 9.328125 43.5 10.453125 43.953125 
Q 12.890625 44.875 15.484375 46.046875 
Q 15.828125 46.046875 15.890625 45.796875 
Q 15.96875 45.5625 15.96875 44.78125 
L 15.96875 36.765625 
Q 19.09375 41.109375 22 43.546875 
Q 24.90625 46 28.03125 46 
Q 30.515625 46 32.078125 44.5 
Q 33.640625 43.015625 33.640625 40.765625 
Q 33.640625 38.765625 32.4375 37.390625 
Q 31.25 36.03125 29.4375 36.03125 
Q 27.59375 36.03125 25.703125 37.734375 
Q 23.828125 39.453125 22.75 39.453125 
Q 21.046875 39.453125 18.546875 36.6875 
Q 16.0625 33.9375 16.0625 31 
L 16.0625 8.984375 
Q 16.0625 4.78125 18.015625 3.140625 
Q 19.96875 1.515625 24.515625 1.609375 
L 24.515625 0 
L 0.4375 0 
z
" id="Times-Roman-114"/>
      <path d="M 46.484375 43.84375 
Q 43.5625 43.5 42.140625 42.859375 
Q 40.71875 42.234375 40.71875 40.328125 
Q 40.71875 39.3125 41.03125 38.203125 
Q 41.359375 37.109375 41.890625 35.640625 
L 50.78125 12.453125 
L 59.46875 33.640625 
Q 60.0625 35.015625 60.734375 37.234375 
Q 61.421875 39.453125 61.421875 40.578125 
Q 61.421875 42.390625 60.296875 43.015625 
Q 59.1875 43.65625 57.03125 43.953125 
L 57.03125 45.359375 
L 69.4375 45.359375 
L 69.4375 43.953125 
Q 68.21875 43.703125 67.4375 42.765625 
Q 66.65625 41.84375 65.234375 38.375 
L 49.609375 -0.140625 
Q 49.421875 -0.59375 49.265625 -0.78125 
Q 49.125 -0.984375 48.828125 -0.984375 
Q 48.25 -0.6875 48.140625 -0.484375 
L 37.109375 26.8125 
L 24.265625 -0.390625 
Q 24.171875 -0.640625 24 -0.8125 
Q 23.828125 -0.984375 23.578125 -0.984375 
Q 23 -0.6875 22.90625 -0.484375 
L 8.296875 35.5 
Q 5.90625 41.40625 5.125 42.453125 
Q 4.34375 43.5 2.046875 43.84375 
L 2.046875 45.359375 
L 20.125 45.359375 
L 20.125 43.84375 
Q 17.875 43.65625 16.671875 43.046875 
Q 15.484375 42.4375 15.484375 40.4375 
Q 15.484375 39.015625 17.484375 33.5 
Q 18.65625 30.328125 20.453125 25.78125 
L 26.03125 11.921875 
L 34.8125 30.765625 
L 34.90625 31.34375 
Q 34.90625 32.328125 33.859375 34.984375 
Q 32.8125 37.640625 31.84375 39.75 
Q 30.859375 41.9375 29.609375 42.796875 
Q 28.375 43.65625 26.125 43.84375 
L 26.125 45.359375 
L 46.484375 45.359375 
z
" id="Times-Roman-119"/>
      <path d="M 23.6875 46.140625 
Q 27.25 46.140625 30.21875 44.578125 
Q 32.171875 43.5625 33.984375 41.75 
L 33.984375 57.28125 
Q 33.984375 60.25 33.328125 61.375 
Q 32.671875 62.5 30.171875 62.5 
Q 29.59375 62.5 29.15625 62.453125 
Q 28.71875 62.40625 27.203125 62.25 
L 27.203125 63.875 
L 31.203125 64.890625 
Q 33.40625 65.484375 35.59375 66.109375 
Q 37.796875 66.75 39.453125 67.328125 
Q 40.234375 67.578125 42.046875 68.265625 
L 42.328125 68.171875 
L 42.234375 63.03125 
Q 42.1875 60.25 42.140625 57.296875 
Q 42.09375 54.34375 42.09375 51.46875 
L 42 11.578125 
Q 42 8.40625 42.78125 7.125 
Q 43.5625 5.859375 46.921875 5.859375 
Q 47.46875 5.859375 48 5.875 
Q 48.53125 5.90625 49.078125 6 
L 49.078125 4.390625 
Q 48.78125 4.296875 42 1.953125 
L 34.328125 -0.921875 
L 33.984375 -0.484375 
L 33.984375 5.515625 
Q 31.25 2.546875 29.25 1.265625 
Q 25.6875 -0.921875 21 -0.921875 
Q 12.703125 -0.921875 7.546875 5.5 
Q 2.390625 11.921875 2.390625 20.359375 
Q 2.390625 30.953125 8.5625 38.546875 
Q 14.75 46.140625 23.6875 46.140625 
z
M 25.484375 4.34375 
Q 29.296875 4.34375 31.640625 6.59375 
Q 33.984375 8.84375 33.984375 10.84375 
L 33.984375 31.78125 
Q 33.984375 38.140625 30.59375 40.75 
Q 27.203125 43.359375 23.96875 43.359375 
Q 17.828125 43.359375 14.40625 37.90625 
Q 10.984375 32.46875 10.984375 24.515625 
Q 10.984375 16.65625 14.625 10.5 
Q 18.265625 4.34375 25.484375 4.34375 
z
" id="Times-Roman-100"/>
     </defs>
     <g transform="translate(42.26325 166.613063)rotate(-90)scale(0.088 -0.088)">
      <use xlink:href="#Times-Roman-77"/>
      <use x="88.916016" xlink:href="#Times-Roman-101"/>
      <use x="133.300781" xlink:href="#Times-Roman-97"/>
      <use x="177.685547" xlink:href="#Times-Roman-110"/>
      <use x="227.685547" xlink:href="#Times-Roman-32"/>
      <use x="252.685547" xlink:href="#Times-Roman-114"/>
      <use x="285.986328" xlink:href="#Times-Roman-101"/>
      <use x="330.371094" xlink:href="#Times-Roman-119"/>
      <use x="402.587891" xlink:href="#Times-Roman-97"/>
      <use x="446.972656" xlink:href="#Times-Roman-114"/>
      <use x="480.273438" xlink:href="#Times-Roman-100"/>
     </g>
    </g>
   </g>
   <g id="line2d_14">
    <path clip-path="url(#pcade69a6f5)" d="M 210.27912 102.522345 
L 206.180787 104.473217 
L 201.880158 106.610992 
L 197.384874 108.944424 
L 192.706188 111.480541 
L 187.859337 114.224084 
L 182.863553 117.177073 
L 177.74129 120.338814 
L 172.516896 123.706305 
L 167.215822 127.274436 
L 161.865285 131.035234 
L 156.495928 134.976264 
L 151.142751 139.079273 
L 145.84422 143.320085 
L 140.640274 147.669473 
L 135.570571 152.094126 
L 130.673298 156.557384 
L 125.984023 161.020145 
L 121.534222 165.442348 
L 117.349654 169.784939 
L 113.449196 174.011769 
L 109.844522 178.090887 
L 106.540387 181.995338 
L 103.534859 185.704074 
L 100.819444 189.20309 
L 98.379713 192.485996 
L 96.196754 195.553401 
L 94.249077 198.411342 
L 92.514352 201.069491 
L 90.970668 203.539628 
L 89.5973 205.834526 
L 88.375123 207.967207 
L 87.286774 209.95045 
L 86.316671 211.796492 
L 85.45095 213.516846 
L 84.677351 215.122207 
L 83.985077 216.622413 
L 83.364651 218.026455 
L 82.807768 219.3425 
L 82.30716 220.577939 
L 81.856466 221.739446 
L 81.45012 222.833032 
L 81.083245 223.864108 
L 80.751566 224.837544 
L 80.451328 225.757724 
L 80.179226 226.628594 
L 79.932349 227.453717 
L 79.708126 228.236308 
L 79.504281 228.979275 
L 79.318797 229.685256 
L 79.14988 230.356646 
L 78.995934 230.995624 
L 78.855534 231.604179 
L 78.727405 232.184132 
L 78.610408 232.737148 
L 78.503518 233.264761 
L 78.405814 233.768383 
L 78.316468 234.249315 
L 78.234732 234.708766 
L 78.15993 235.147853 
L 78.091452 235.567618 
L 78.028744 235.969028 
L 77.971305 236.35299 
L 77.91868 236.720349 
L 77.870455 237.071899 
" style="fill:none;stroke:#000000;stroke-dasharray:5.18,2.24;stroke-dashoffset:0;stroke-width:1.4;"/>
   </g>
   <g id="line2d_15"/>
   <g id="line2d_16"/>
   <g id="line2d_17"/>
   <g id="line2d_18"/>
   <g id="line2d_19"/>
   <g id="patch_3">
    <path d="M 60.75 252 
L 60.75 34.56 
" style="fill:none;stroke:#000000;stroke-linecap:square;stroke-linejoin:miter;stroke-width:0.8;"/>
   </g>
   <g id="patch_4">
    <path d="M 437.4 252 
L 437.4 34.56 
" style="fill:none;stroke:#000000;stroke-linecap:square;stroke-linejoin:miter;stroke-width:0.8;"/>
   </g>
   <g id="patch_5">
    <path d="M 60.75 252 
L 437.4 252 
" style="fill:none;stroke:#000000;stroke-linecap:square;stroke-linejoin:miter;stroke-width:0.8;"/>
   </g>
   <g id="patch_6">
    <path d="M 60.75 34.56 
L 437.4 34.56 
" style="fill:none;stroke:#000000;stroke-linecap:square;stroke-linejoin:miter;stroke-width:0.8;"/>
   </g>
   <g id="text_16">
    <!-- Pareto frontier: KL vs. mock reward -->
    <defs>
     <path d="M 43.265625 48 
Q 43.265625 57.171875 35.359375 60.59375 
Q 31.109375 62.453125 24.609375 62.453125 
Q 21.53125 62.453125 20.828125 61.84375 
Q 20.125 61.234375 20.125 59.125 
L 20.125 33.0625 
Q 22.796875 32.8125 23.625 32.765625 
Q 24.46875 32.71875 25.25 32.71875 
Q 32.125 32.71875 36.078125 34.671875 
Q 43.265625 38.234375 43.265625 48 
z
M 1.609375 1.8125 
Q 7.328125 2.34375 8.734375 4.078125 
Q 10.15625 5.8125 10.15625 12.015625 
L 10.15625 55.328125 
Q 10.15625 60.546875 8.5625 62.203125 
Q 6.984375 63.875 1.609375 64.3125 
L 1.609375 66.15625 
L 27.984375 66.15625 
Q 40.671875 66.15625 47.40625 61.21875 
Q 54.15625 56.296875 54.15625 48.25 
Q 54.15625 38.03125 46.671875 33.4375 
Q 39.203125 28.859375 27.984375 28.859375 
Q 26.375 28.859375 23.859375 28.921875 
Q 21.34375 29 20.125 29 
L 20.125 10.84375 
Q 20.125 5.171875 21.84375 3.703125 
Q 23.578125 2.25 29.59375 1.8125 
L 29.59375 0 
L 1.609375 0 
z
" id="Times-Roman-80"/>
     <path d="M 25.4375 45.015625 
L 25.4375 41.5 
L 15.484375 41.5 
L 15.375 13.375 
Q 15.375 9.671875 16.015625 7.765625 
Q 17.1875 4.390625 20.609375 4.390625 
Q 22.359375 4.390625 23.65625 5.21875 
Q 24.953125 6.0625 26.609375 7.859375 
L 27.875 6.78125 
L 26.8125 5.328125 
Q 24.265625 1.90625 21.4375 0.484375 
Q 18.609375 -0.921875 15.96875 -0.921875 
Q 10.203125 -0.921875 8.15625 4.203125 
Q 7.03125 6.984375 7.03125 11.921875 
L 7.03125 41.5 
L 1.703125 41.5 
Q 1.46875 41.65625 1.34375 41.796875 
Q 1.21875 41.9375 1.21875 42.1875 
Q 1.21875 42.671875 1.4375 42.9375 
Q 1.65625 43.21875 2.828125 44.1875 
Q 6.203125 46.96875 7.6875 48.703125 
Q 9.1875 50.4375 14.703125 57.859375 
Q 15.328125 57.859375 15.453125 57.765625 
Q 15.578125 57.671875 15.578125 57.03125 
L 15.578125 45.015625 
z
" id="Times-Roman-116"/>
     <path d="M 2.546875 22.65625 
Q 2.546875 32.375 8.71875 39.078125 
Q 14.890625 45.796875 24.609375 45.796875 
Q 34.28125 45.796875 40.625 39.453125 
Q 46.96875 33.109375 46.96875 22.5625 
Q 46.96875 12.84375 40.8125 5.65625 
Q 34.671875 -1.515625 24.90625 -1.515625 
Q 15.53125 -1.515625 9.03125 5.359375 
Q 2.546875 12.25 2.546875 22.65625 
z
M 23.25 42.875 
Q 19.390625 42.875 16.546875 40.328125 
Q 11.671875 35.890625 11.671875 25 
Q 11.671875 16.3125 15.59375 8.78125 
Q 19.53125 1.265625 26.515625 1.265625 
Q 31.984375 1.265625 34.9375 6.296875 
Q 37.890625 11.328125 37.890625 19.484375 
Q 37.890625 27.9375 34.125 35.40625 
Q 30.375 42.875 23.25 42.875 
z
M 25.046875 45.796875 
z
" id="Times-Roman-111"/>
     <path d="M 1.953125 1.375 
Q 7.125 1.609375 8.765625 3.296875 
Q 10.40625 4.984375 10.40625 10.40625 
L 10.40625 41.75 
L 2.046875 41.75 
L 2.046875 45.015625 
L 10.40625 45.015625 
Q 10.40625 52.734375 12.5 58.0625 
Q 16.5 68.265625 27.203125 68.265625 
Q 31.5 68.265625 34.890625 66.546875 
Q 38.28125 64.84375 38.28125 61.96875 
Q 38.28125 60.359375 37.109375 59.078125 
Q 35.9375 57.8125 34.28125 57.8125 
Q 32.859375 57.8125 31.828125 58.65625 
Q 30.8125 59.515625 29.390625 61.671875 
L 28.5625 62.9375 
Q 27.875 63.96875 26.953125 64.671875 
Q 26.03125 65.375 24.359375 65.375 
Q 20.65625 65.375 19.34375 61.71875 
Q 18.609375 59.765625 18.609375 56.59375 
L 18.609375 45.015625 
L 30.859375 45.015625 
L 30.859375 41.75 
L 18.703125 41.75 
L 18.703125 10.40625 
Q 18.703125 4.890625 20.1875 3.34375 
Q 21.6875 1.8125 27.984375 1.375 
L 27.984375 0 
L 1.953125 0 
z
" id="Times-Roman-102"/>
     <path d="M 8.203125 63.03125 
Q 8.203125 65.140625 9.671875 66.65625 
Q 11.140625 68.171875 13.28125 68.171875 
Q 15.375 68.171875 16.859375 66.671875 
Q 18.359375 65.1875 18.359375 63.03125 
Q 18.359375 60.9375 16.859375 59.4375 
Q 15.375 57.953125 13.28125 57.953125 
Q 11.140625 57.953125 9.671875 59.4375 
Q 8.203125 60.9375 8.203125 63.03125 
z
M 1.953125 1.375 
Q 7.171875 1.859375 8.53125 3.140625 
Q 9.90625 4.4375 9.90625 10.15625 
L 9.90625 33.453125 
Q 9.90625 36.625 9.46875 37.84375 
Q 8.734375 39.84375 6.390625 39.84375 
Q 5.859375 39.84375 5.34375 39.75 
Q 4.828125 39.65625 2.390625 38.96875 
L 2.390625 40.484375 
L 4.5 41.15625 
Q 13.03125 43.953125 16.40625 45.359375 
Q 17.78125 45.953125 18.171875 45.953125 
Q 18.265625 45.609375 18.265625 45.21875 
L 18.265625 10.15625 
Q 18.265625 4.59375 19.609375 3.171875 
Q 20.953125 1.765625 25.6875 1.375 
L 25.6875 0 
L 1.953125 0 
z
" id="Times-Roman-105"/>
     <path d="M 18.953125 40.578125 
Q 18.953125 38.140625 17.265625 36.59375 
Q 15.578125 35.0625 13.421875 35.0625 
Q 11.078125 35.0625 9.5625 36.71875 
Q 8.0625 38.375 8.0625 40.53125 
Q 8.0625 42.78125 9.625 44.359375 
Q 11.1875 45.953125 13.421875 45.953125 
Q 15.578125 45.953125 17.265625 44.40625 
Q 18.953125 42.875 18.953125 40.578125 
z
M 13.28125 -0.828125 
Q 11.234375 -0.828125 9.640625 0.78125 
Q 8.0625 2.390625 8.0625 4.6875 
Q 8.0625 6.890625 9.625 8.515625 
Q 11.1875 10.15625 13.484375 10.15625 
Q 15.765625 10.15625 17.46875 8.5625 
Q 19.1875 6.984375 19.1875 4.734375 
Q 19.1875 2.59375 17.578125 0.875 
Q 15.96875 -0.828125 13.28125 -0.828125 
z
" id="Times-Roman-58"/>
     <path d="M 1.8125 1.8125 
Q 7.90625 2.296875 9.375 3.984375 
Q 10.84375 5.671875 10.84375 12.015625 
L 10.84375 55.328125 
Q 10.84375 60.75 9.203125 62.328125 
Q 7.5625 63.921875 1.8125 64.3125 
L 1.8125 66.15625 
L 30.328125 66.15625 
L 30.328125 64.3125 
Q 24.46875 64.015625 22.75 62.34375 
Q 21.046875 60.6875 21.046875 55.328125 
L 21.046875 34.8125 
Q 30.28125 42.671875 36.140625 48.1875 
Q 46.625 58.203125 46.625 61.03125 
Q 46.625 63.03125 44.84375 63.671875 
Q 43.0625 64.3125 39.796875 64.3125 
L 39.796875 66.15625 
L 65.96875 66.15625 
L 65.96875 64.546875 
Q 61.1875 64.0625 58.421875 62.640625 
Q 55.671875 61.234375 50.78125 56.453125 
L 31.78125 37.84375 
L 55.078125 12.703125 
Q 61.578125 5.71875 63.921875 3.984375 
Q 66.265625 2.25 70.796875 1.703125 
L 70.796875 0 
L 40.234375 0 
L 40.234375 1.8125 
Q 44.390625 1.953125 45.84375 2.46875 
Q 47.3125 2.984375 47.3125 4.5 
Q 47.3125 5.328125 46.359375 7.03125 
Q 45.40625 8.734375 43.359375 10.984375 
L 24.421875 31.78125 
L 21.046875 28.90625 
L 21.046875 10.84375 
Q 21.046875 5.28125 22.734375 3.78125 
Q 24.421875 2.296875 30.078125 1.8125 
L 30.078125 0 
L 1.8125 0 
z
" id="Times-Roman-75"/>
     <path d="M 1.125 1.8125 
Q 6.640625 2.390625 8.265625 3.78125 
Q 9.90625 5.171875 9.90625 10.84375 
L 9.90625 55.328125 
Q 9.90625 60.640625 8.296875 62.28125 
Q 6.6875 63.921875 1.125 64.3125 
L 1.125 66.15625 
L 29.390625 66.15625 
L 29.390625 64.3125 
Q 23.875 64.015625 22 62.5 
Q 20.125 60.984375 20.125 56 
L 20.125 7.953125 
Q 20.125 6.296875 20.671875 5.34375 
Q 21.234375 4.390625 23.140625 4.15625 
Q 24.265625 4 25.515625 3.953125 
Q 26.765625 3.90625 30.171875 3.90625 
Q 43.5 3.90625 48.1875 6.09375 
Q 52.875 8.296875 57.28125 17.328125 
L 59.8125 17.328125 
L 54.9375 0 
L 1.125 0 
z
" id="Times-Roman-76"/>
     <path d="M 21.484375 45.359375 
L 21.484375 43.84375 
Q 18.953125 43.5625 17.890625 43.0625 
Q 16.84375 42.578125 16.84375 40.921875 
Q 16.84375 40.140625 17.0625 39.421875 
Q 17.28125 38.71875 17.828125 37.359375 
L 27.984375 12.109375 
L 36.765625 34.46875 
Q 37.40625 36.078125 37.96875 37.828125 
Q 38.53125 39.59375 38.53125 40.53125 
Q 38.53125 42.4375 36.71875 43.265625 
Q 35.640625 43.703125 33.796875 43.84375 
L 33.796875 45.359375 
L 47.65625 45.359375 
L 47.65625 43.84375 
Q 45.265625 43.65625 44.21875 42.265625 
Q 43.171875 40.875 41.15625 35.84375 
L 27.046875 0.6875 
Q 26.65625 -0.25 26.40625 -0.578125 
Q 26.171875 -0.921875 25.734375 -0.921875 
Q 25.25 -0.921875 24.90625 -0.359375 
Q 24.5625 0.203125 24.171875 1.03125 
L 9.234375 36.765625 
Q 7.421875 41.109375 5.375 42.671875 
Q 4.15625 43.5625 1.8125 43.84375 
L 1.8125 45.359375 
z
" id="Times-Roman-118"/>
     <path d="M 5.171875 15.375 
L 6.78125 15.375 
Q 7.90625 9.8125 9.8125 6.84375 
Q 13.234375 1.375 19.828125 1.375 
Q 23.484375 1.375 25.609375 3.390625 
Q 27.734375 5.421875 27.734375 8.640625 
Q 27.734375 10.6875 26.515625 12.59375 
Q 25.296875 14.5 22.21875 16.3125 
L 16.75 19.4375 
Q 10.75 22.65625 7.90625 25.921875 
Q 5.078125 29.203125 5.078125 33.640625 
Q 5.078125 39.109375 8.984375 42.625 
Q 12.890625 46.140625 18.796875 46.140625 
Q 21.390625 46.140625 24.484375 45.15625 
Q 27.59375 44.1875 27.984375 44.1875 
Q 28.859375 44.1875 29.25 44.421875 
Q 29.640625 44.671875 29.9375 45.21875 
L 31.109375 45.21875 
L 31.453125 31.59375 
L 29.9375 31.59375 
Q 28.953125 36.328125 27.296875 38.96875 
Q 24.265625 43.84375 18.5625 43.84375 
Q 15.140625 43.84375 13.1875 41.75 
Q 11.234375 39.65625 11.234375 36.8125 
Q 11.234375 32.328125 17.96875 28.8125 
L 24.421875 25.34375 
Q 34.8125 19.671875 34.8125 12.15625 
Q 34.8125 6.390625 30.484375 2.734375 
Q 26.171875 -0.921875 19.1875 -0.921875 
Q 16.265625 -0.921875 12.546875 0.046875 
Q 8.84375 1.03125 8.15625 1.03125 
Q 7.5625 1.03125 7.125 0.609375 
Q 6.6875 0.203125 6.453125 -0.390625 
L 5.171875 -0.390625 
z
M 19.484375 46.140625 
z
" id="Times-Roman-115"/>
     <path d="M 16.3125 -1.171875 
Q 13.96875 -1.171875 12.359375 0.453125 
Q 10.75 2.09375 10.75 4.390625 
Q 10.75 6.6875 12.375 8.296875 
Q 14.015625 9.90625 16.3125 9.90625 
Q 18.609375 9.90625 20.21875 8.296875 
Q 21.828125 6.6875 21.828125 4.390625 
Q 21.828125 2.09375 20.234375 0.453125 
Q 18.65625 -1.171875 16.3125 -1.171875 
z
" id="Times-Roman-46"/>
     <path d="M 1.609375 1.265625 
Q 5.421875 1.609375 6.6875 2.546875 
Q 8.640625 3.953125 8.640625 8.203125 
L 8.640625 33.453125 
Q 8.640625 37.0625 7.6875 38.1875 
Q 6.734375 39.3125 4.546875 39.3125 
Q 3.515625 39.3125 3 39.203125 
Q 2.484375 39.109375 1.8125 38.875 
L 1.8125 40.578125 
L 5.328125 41.75 
Q 7.234375 42.390625 11.578125 44.046875 
Q 15.921875 45.703125 16.15625 45.703125 
Q 16.40625 45.703125 16.453125 45.453125 
Q 16.5 45.21875 16.5 44.53125 
L 16.5 37.9375 
Q 21.34375 42.328125 24.859375 44.015625 
Q 28.375 45.703125 32.078125 45.703125 
Q 37.109375 45.703125 40.09375 42.28125 
Q 41.65625 40.4375 42.671875 37.25 
Q 46.296875 40.921875 48.96875 42.671875 
Q 53.609375 45.703125 58.453125 45.703125 
Q 66.3125 45.703125 68.953125 39.3125 
Q 70.453125 35.6875 70.453125 27.875 
L 70.453125 7.625 
Q 70.453125 4.15625 71.984375 2.90625 
Q 73.53125 1.65625 77.546875 1.265625 
L 77.546875 0 
L 55.515625 0 
L 55.515625 1.375 
Q 59.765625 1.765625 61.109375 3.078125 
Q 62.453125 4.390625 62.453125 8.453125 
L 62.453125 29.5 
Q 62.453125 34.234375 61.421875 36.46875 
Q 59.625 40.484375 54.34375 40.484375 
Q 51.171875 40.484375 48.046875 38.375 
Q 46.234375 37.15625 43.609375 34.46875 
L 43.609375 9.46875 
Q 43.609375 5.515625 45 3.46875 
Q 46.390625 1.421875 50.875 1.265625 
L 50.875 0 
L 28.46875 0 
L 28.46875 1.265625 
Q 33.109375 1.859375 34.375 3.515625 
Q 35.640625 5.171875 35.640625 11.671875 
L 35.640625 25.34375 
Q 35.640625 32.859375 34.671875 35.6875 
Q 33.0625 40.484375 27.828125 40.484375 
Q 24.859375 40.484375 21.96875 38.84375 
Q 19.09375 37.203125 16.890625 34.578125 
L 16.890625 7.859375 
Q 16.890625 4.15625 18.1875 2.734375 
Q 19.484375 1.3125 23.828125 1.265625 
L 23.828125 0 
L 1.609375 0 
z
" id="Times-Roman-109"/>
     <path d="M 24.859375 46.046875 
Q 30.953125 46.046875 35.375 42.890625 
Q 39.796875 39.75 39.796875 35.984375 
Q 39.796875 34.375 38.671875 32.984375 
Q 37.546875 31.59375 35.203125 31.59375 
Q 33.5 31.59375 32.203125 32.765625 
Q 30.90625 33.9375 30.328125 36.1875 
L 29.734375 38.53125 
Q 29.109375 41.109375 27.546875 42.1875 
Q 25.921875 43.21875 23.296875 43.21875 
Q 17.71875 43.21875 13.890625 38.359375 
Q 10.0625 33.5 10.0625 25.4375 
Q 10.0625 18.0625 14.28125 12.203125 
Q 18.5 6.34375 25.6875 6.34375 
Q 30.765625 6.34375 34.71875 9.671875 
Q 36.96875 11.578125 39.796875 15.71875 
L 41.15625 14.890625 
Q 38.375 9.03125 35.296875 5.609375 
Q 29.390625 -0.921875 21.625 -0.921875 
Q 14.015625 -0.921875 8.15625 5.078125 
Q 2.296875 11.078125 2.296875 21.390625 
Q 2.296875 31.5 8.6875 38.765625 
Q 15.09375 46.046875 24.859375 46.046875 
z
M 22.703125 46.046875 
z
" id="Times-Roman-99"/>
     <path d="M 0.203125 1.375 
Q 4.890625 1.703125 6.375 2.921875 
Q 7.859375 4.15625 7.859375 8.203125 
L 7.859375 57.125 
Q 7.859375 60.59375 6.6875 61.515625 
Q 5.515625 62.453125 3.328125 62.453125 
Q 2.390625 62.453125 1.703125 62.40625 
Q 1.03125 62.359375 0.203125 62.25 
L 0.203125 63.625 
L 4.59375 64.796875 
Q 9.625 66.109375 13.140625 67.28125 
Q 15.28125 68.015625 15.625 68.015625 
Q 15.921875 68.015625 15.984375 67.890625 
Q 16.0625 67.78125 16.0625 67.328125 
L 16.0625 26.265625 
L 29.59375 38.1875 
Q 31.0625 39.5 31.5625 40.28125 
Q 32.078125 41.0625 32.078125 41.65625 
Q 32.078125 42.78125 30.984375 43.0625 
Q 29.890625 43.359375 27.046875 43.5 
L 27.046875 44.875 
L 47.40625 44.875 
L 47.40625 43.5 
Q 41.9375 43.171875 38.609375 41.328125 
Q 35.296875 39.5 25.875 30.859375 
L 23 28.21875 
L 32.03125 16.5 
Q 38.96875 7.515625 42.484375 4.5625 
Q 46 1.609375 49.953125 1.265625 
L 49.953125 0 
L 28.21875 0 
L 28.21875 1.375 
L 29.9375 1.46875 
Q 30.765625 1.515625 31.4375 1.796875 
Q 32.125 2.09375 32.125 2.78125 
Q 32.125 3.328125 31.875 3.78125 
Q 31.640625 4.25 31.203125 4.828125 
L 16.0625 24.75 
L 16.0625 6.6875 
Q 16.0625 3.328125 18.5625 2.203125 
Q 20.015625 1.515625 23.578125 1.46875 
L 23.578125 0 
L 0.203125 0 
z
" id="Times-Roman-107"/>
    </defs>
    <g transform="translate(179.23125 28.56)scale(0.096 -0.096)">
     <use xlink:href="#Times-Roman-80"/>
     <use x="55.615234" xlink:href="#Times-Roman-97"/>
     <use x="100" xlink:href="#Times-Roman-114"/>
     <use x="133.300781" xlink:href="#Times-Roman-101"/>
     <use x="177.685547" xlink:href="#Times-Roman-116"/>
     <use x="205.46875" xlink:href="#Times-Roman-111"/>
     <use x="255.46875" xlink:href="#Times-Roman-32"/>
     <use x="280.46875" xlink:href="#Times-Roman-102"/>
     <use x="313.769531" xlink:href="#Times-Roman-114"/>
     <use x="347.070312" xlink:href="#Times-Roman-111"/>
     <use x="397.070312" xlink:href="#Times-Roman-110"/>
     <use x="447.070312" xlink:href="#Times-Roman-116"/>
     <use x="474.853516" xlink:href="#Times-Roman-105"/>
     <use x="502.636719" xlink:href="#Times-Roman-101"/>
     <use x="547.021484" xlink:href="#Times-Roman-114"/>
     <use x="580.322266" xlink:href="#Times-Roman-58"/>
     <use x="608.105469" xlink:href="#Times-Roman-32"/>
     <use x="633.105469" xlink:href="#Times-Roman-75"/>
     <use x="705.322266" xlink:href="#Times-Roman-76"/>
     <use x="766.40625" xlink:href="#Times-Roman-32"/>
     <use x="791.40625" xlink:href="#Times-Roman-118"/>
     <use x="841.40625" xlink:href="#Times-Roman-115"/>
     <use x="880.322266" xlink:href="#Times-Roman-46"/>
     <use x="905.322266" xlink:href="#Times-Roman-32"/>
     <use x="930.322266" xlink:href="#Times-Roman-109"/>
     <use x="1008.105469" xlink:href="#Times-Roman-111"/>
     <use x="1058.105469" xlink:href="#Times-Roman-99"/>
     <use x="1102.490234" xlink:href="#Times-Roman-107"/>
     <use x="1152.490234" xlink:href="#Times-Roman-32"/>
     <use x="1177.490234" xlink:href="#Times-Roman-114"/>
     <use x="1210.791016" xlink:href="#Times-Roman-101"/>
     <use x="1255.175781" xlink:href="#Times-Roman-119"/>
     <use x="1327.392578" xlink:href="#Times-Roman-97"/>
     <use x="1371.777344" xlink:href="#Times-Roman-114"/>
     <use x="1405.078125" xlink:href="#Times-Roman-100"/>
    </g>
   </g>
   <g id="legend_1">
    <g id="patch_7">
     <path d="M 339.3225 248 
L 431.8 248 
Q 433.4 248 433.4 246.4 
L 433.4 179.145 
Q 433.4 177.545 431.8 177.545 
L 339.3225 177.545 
Q 337.7225 177.545 337.7225 179.145 
L 337.7225 246.4 
Q 337.7225 248 339.3225 248 
z
" style="fill:#ffffff;opacity:0.8;stroke:#cccccc;stroke-linejoin:miter;stroke-width:0.24;"/>
    </g>
    <g id="line2d_20">
     <path d="M 340.9225 183.545 
L 356.9225 183.545 
" style="fill:none;stroke:#000000;stroke-dasharray:5.18,2.24;stroke-dashoffset:0;stroke-width:1.4;"/>
    </g>
    <g id="line2d_21"/>
    <g id="text_17">
     <!-- optimal -->
     <defs>
      <path d="M 15.96875 8.984375 
Q 17.234375 5.671875 19.75 4.03125 
Q 22.265625 2.390625 25.6875 2.390625 
Q 30.953125 2.390625 34.6875 7.640625 
Q 38.421875 12.890625 38.421875 22.265625 
Q 38.421875 31.25 34.546875 35.6875 
Q 30.671875 40.140625 25.53125 40.140625 
Q 21.921875 40.140625 18.9375 37.90625 
Q 15.96875 35.6875 15.96875 33.546875 
L 15.96875 8.984375 
z
M 0.4375 -20.171875 
Q 5.03125 -19.875 6.265625 -18.203125 
Q 7.515625 -16.546875 7.515625 -12.984375 
L 7.515625 33.890625 
Q 7.515625 37.59375 6.609375 38.640625 
Q 5.71875 39.703125 3.21875 39.703125 
Q 2.6875 39.703125 2.21875 39.640625 
Q 1.765625 39.59375 0.875 39.453125 
L 0.875 41.0625 
L 5.515625 42.578125 
Q 5.765625 42.625 15.328125 45.953125 
Q 15.578125 45.953125 15.703125 45.734375 
Q 15.828125 45.515625 15.828125 45.21875 
L 15.828125 38.625 
Q 19.046875 41.84375 21.484375 43.40625 
Q 25.875 46.140625 30.515625 46.140625 
Q 37.25 46.140625 42.109375 40.40625 
Q 46.96875 34.671875 46.96875 24.703125 
Q 46.96875 14.9375 41.125 6.96875 
Q 35.296875 -0.984375 26.46875 -0.984375 
Q 23.734375 -0.984375 21.734375 -0.296875 
Q 18.609375 0.734375 15.96875 3.46875 
L 15.96875 -12.5 
Q 15.96875 -17.4375 17.578125 -18.546875 
Q 19.1875 -19.671875 24.609375 -20.0625 
L 24.609375 -21.78125 
L 0.4375 -21.78125 
z
" id="Times-Roman-112"/>
      <path d="M 2.046875 1.375 
Q 6.59375 1.8125 8.203125 3.203125 
Q 9.8125 4.59375 9.8125 8.640625 
L 9.8125 56.34375 
Q 9.8125 59.578125 9.28125 60.796875 
Q 8.296875 62.84375 5.328125 62.84375 
Q 4.640625 62.84375 3.828125 62.6875 
Q 3.03125 62.546875 1.8125 62.25 
L 1.8125 63.875 
Q 8.40625 65.625 17.671875 68.5625 
Q 18.015625 68.5625 18.09375 68.265625 
Q 18.171875 67.96875 18.171875 67 
L 18.171875 8.453125 
Q 18.171875 4.203125 19.625 2.953125 
Q 21.09375 1.703125 25.6875 1.375 
L 25.6875 0 
L 2.046875 0 
z
" id="Times-Roman-108"/>
     </defs>
     <g transform="translate(363.3225 186.345)scale(0.08 -0.08)">
      <use xlink:href="#Times-Roman-111"/>
      <use x="50" xlink:href="#Times-Roman-112"/>
      <use x="100" xlink:href="#Times-Roman-116"/>
      <use x="127.783203" xlink:href="#Times-Roman-105"/>
      <use x="155.566406" xlink:href="#Times-Roman-109"/>
      <use x="233.349609" xlink:href="#Times-Roman-97"/>
      <use x="277.734375" xlink:href="#Times-Roman-108"/>
     </g>
    </g>
    <g id="line2d_22"/>
    <g id="line2d_23">
     <defs>
      <path d="M 0 2.8 
C 0.742569 2.8 1.454824 2.504974 1.979899 1.979899 
C 2.504974 1.454824 2.8 0.742569 2.8 0 
C 2.8 -0.742569 2.504974 -1.454824 1.979899 -1.979899 
C 1.454824 -2.504974 0.742569 -2.8 0 -2.8 
C -0.742569 -2.8 -1.454824 -2.504974 -1.979899 -1.979899 
C -2.504974 -1.454824 -2.8 -0.742569 -2.8 0 
C -2.8 0.742569 -2.504974 1.454824 -1.979899 1.979899 
C -1.454824 2.504974 -0.742569 2.8 0 2.8 
z
" id="m030c5e1c08"/>
     </defs>
     <g>
      <use style="fill:#0072b2;" x="348.9225" xlink:href="#m030c5e1c08" y="194.8875"/>
     </g>
    </g>
    <g id="text_18">
     <!-- direct -->
     <g transform="translate(363.3225 197.6875)scale(0.08 -0.08)">
      <use xlink:href="#Times-Roman-100"/>
      <use x="50" xlink:href="#Times-Roman-105"/>
      <use x="77.783203" xlink:href="#Times-Roman-114"/>
      <use x="111.083984" xlink:href="#Times-Roman-101"/>
      <use x="155.46875" xlink:href="#Times-Roman-99"/>
      <use x="199.853516" xlink:href="#Times-Roman-116"/>
     </g>
    </g>
    <g id="line2d_24"/>
    <g id="line2d_25">
     <defs>
      <path d="M 0 2.8 
C 0.742569 2.8 1.454824 2.504974 1.979899 1.979899 
C 2.504974 1.454824 2.8 0.742569 2.8 0 
C 2.8 -0.742569 2.504974 -1.454824 1.979899 -1.979899 
C 1.454824 -2.504974 0.742569 -2.8 0 -2.8 
C -0.742569 -2.8 -1.454824 -2.504974 -1.979899 -1.979899 
C -2.504974 -1.454824 -2.8 -0.742569 -2.8 0 
C -2.8 0.742569 -2.504974 1.454824 -1.979899 1.979899 
C -1.454824 2.504974 -0.742569 2.8 0 2.8 
z
" id="maaf5819504"/>
     </defs>
     <g>
      <use style="fill:#009e73;" x="348.9225" xlink:href="#maaf5819504" y="206.23"/>
     </g>
    </g>
    <g id="text_19">
     <!-- 60000 labels -->
     <defs>
      <path d="M 0.34375 62.109375 
L 0.34375 63.765625 
Q 5.90625 65.046875 10.34375 66.609375 
Q 14.796875 68.171875 15.140625 68.171875 
Q 15.234375 67.875 15.234375 67.578125 
L 15.234375 37.84375 
Q 16.5 40.1875 19.046875 42.28125 
Q 23.53125 45.953125 29.390625 45.953125 
Q 36.578125 45.953125 41.65625 39.890625 
Q 46.734375 33.84375 46.734375 24.171875 
Q 46.734375 13.8125 40.140625 6.4375 
Q 33.546875 -0.921875 22.796875 -0.921875 
Q 17.390625 -0.921875 12.15625 1.21875 
Q 6.9375 3.375 6.9375 5.515625 
L 6.9375 57.125 
Q 6.9375 59.96875 6.15625 61.15625 
Q 5.375 62.359375 2.546875 62.359375 
z
M 15.046875 7.125 
Q 15.484375 4.59375 18.84375 3.484375 
Q 22.21875 2.390625 24.75 2.390625 
Q 31.59375 2.390625 34.890625 7.515625 
Q 38.1875 12.640625 38.1875 19.921875 
Q 38.1875 27.203125 35.109375 33.375 
Q 32.03125 39.546875 25.140625 39.546875 
Q 21.6875 39.546875 18.359375 37.421875 
Q 15.046875 35.296875 15.046875 32.03125 
L 15.046875 7.125 
z
" id="Times-Roman-98"/>
     </defs>
     <g transform="translate(363.3225 209.03)scale(0.08 -0.08)">
      <use xlink:href="#Times-Roman-54"/>
      <use x="50" xlink:href="#Times-Roman-48"/>
      <use x="100" xlink:href="#Times-Roman-48"/>
      <use x="150" xlink:href="#Times-Roman-48"/>
      <use x="200" xlink:href="#Times-Roman-48"/>
      <use x="250" xlink:href="#Times-Roman-32"/>
      <use x="275" xlink:href="#Times-Roman-108"/>
      <use x="302.783203" xlink:href="#Times-Roman-97"/>
      <use x="347.167969" xlink:href="#Times-Roman-98"/>
      <use x="397.167969" xlink:href="#Times-Roman-101"/>
      <use x="441.552734" xlink:href="#Times-Roman-108"/>
      <use x="469.335938" xlink:href="#Times-Roman-115"/>
     </g>
    </g>
    <g id="line2d_26"/>
    <g id="line2d_27">
     <defs>
      <path d="M 0 2.8 
C 0.742569 2.8 1.454824 2.504974 1.979899 1.979899 
C 2.504974 1.454824 2.8 0.742569 2.8 0 
C 2.8 -0.742569 2.504974 -1.454824 1.979899 -1.979899 
C 1.454824 -2.504974 0.742569 -2.8 0 -2.8 
C -0.742569 -2.8 -1.454824 -2.504974 -1.979899 -1.979899 
C -2.504974 -1.454824 -2.8 -0.742569 -2.8 0 
C -2.8 0.742569 -2.504974 1.454824 -1.979899 1.979899 
C -1.454824 2.504974 -0.742569 2.8 0 2.8 
z
" id="me8f64076ad"/>
     </defs>
     <g>
      <use style="fill:#d55e00;" x="348.9225" xlink:href="#me8f64076ad" y="217.5725"/>
     </g>
    </g>
    <g id="text_20">
     <!-- 20000 labels -->
     <g transform="translate(363.3225 220.3725)scale(0.08 -0.08)">
      <use xlink:href="#Times-Roman-50"/>
      <use x="50" xlink:href="#Times-Roman-48"/>
      <use x="100" xlink:href="#Times-Roman-48"/>
      <use x="150" xlink:href="#Times-Roman-48"/>
      <use x="200" xlink:href="#Times-Roman-48"/>
      <use x="250" xlink:href="#Times-Roman-32"/>
      <use x="275" xlink:href="#Times-Roman-108"/>
      <use x="302.783203" xlink:href="#Times-Roman-97"/>
      <use x="347.167969" xlink:href="#Times-Roman-98"/>
      <use x="397.167969" xlink:href="#Times-Roman-101"/>
      <use x="441.552734" xlink:href="#Times-Roman-108"/>
      <use x="469.335938" xlink:href="#Times-Roman-115"/>
     </g>
    </g>
    <g id="line2d_28"/>
    <g id="line2d_29">
     <defs>
      <path d="M 0 2.8 
C 0.742569 2.8 1.454824 2.504974 1.979899 1.979899 
C 2.504974 1.454824 2.8 0.742569 2.8 0 
C 2.8 -0.742569 2.504974 -1.454824 1.979899 -1.979899 
C 1.454824 -2.504974 0.742569 -2.8 0 -2.8 
C -0.742569 -2.8 -1.454824 -2.504974 -1.979899 -1.979899 
C -2.504974 -1.454824 -2.8 -0.742569 -2.8 0 
C -2.8 0.742569 -2.504974 1.454824 -1.979899 1.979899 
C -1.454824 2.504974 -0.742569 2.8 0 2.8 
z
" id="m49002b2131"/>
     </defs>
     <g>
      <use style="fill:#cc79a7;" x="348.9225" xlink:href="#m49002b2131" y="228.915"/>
     </g>
    </g>
    <g id="text_21">
     <!-- 5000 labels -->
     <g transform="translate(363.3225 231.715)scale(0.08 -0.08)">
      <use xlink:href="#Times-Roman-53"/>
      <use x="50" xlink:href="#Times-Roman-48"/>
      <use x="100" xlink:href="#Times-Roman-48"/>
      <use x="150" xlink:href="#Times-Roman-48"/>
      <use x="200" xlink:href="#Times-Roman-32"/>
      <use x="225" xlink:href="#Times-Roman-108"/>
      <use x="252.783203" xlink:href="#Times-Roman-97"/>
      <use x="297.167969" xlink:href="#Times-Roman-98"/>
      <use x="347.167969" xlink:href="#Times-Roman-101"/>
      <use x="391.552734" xlink:href="#Times-Roman-108"/>
      <use x="419.335938" xlink:href="#Times-Roman-115"/>
     </g>
    </g>
    <g id="line2d_30"/>
    <g id="line2d_31">
     <defs>
      <path d="M 0 -2.8 
L -2.8 2.8 
L 2.8 2.8 
z
" id="m9d4cfb443f"/>
     </defs>
     <g>
      <use style="fill:#f0e442;" x="348.9225" xlink:href="#m9d4cfb443f" y="240.2575"/>
     </g>
    </g>
    <g id="text_22">
     <!-- direct, 64M episodes -->
     <defs>
      <path d="M 24.515625 1.03125 
Q 24.515625 -3.90625 20.953125 -8.15625 
Q 17.390625 -12.40625 13.28125 -14.265625 
L 12.359375 -12.3125 
Q 17.046875 -9.671875 18.828125 -6.59375 
Q 20.609375 -3.515625 20.609375 -1.46875 
Q 20.609375 -0.78125 20.171875 -0.578125 
Q 19.734375 -0.390625 19.234375 -0.390625 
L 15.96875 -0.734375 
Q 13.921875 -0.734375 12.203125 0.609375 
Q 10.5 1.953125 10.5 4.5 
Q 10.5 6.453125 11.90625 8.296875 
Q 13.328125 10.15625 16.546875 10.15625 
Q 19.625 10.15625 22.0625 7.734375 
Q 24.515625 5.328125 24.515625 1.03125 
z
" id="Times-Roman-44"/>
     </defs>
     <g transform="translate(363.3225 243.0575)scale(0.08 -0.08)">
      <use xlink:href="#Times-Roman-100"/>
      <use x="50" xlink:href="#Times-Roman-105"/>
      <use x="77.783203" xlink:href="#Times-Roman-114"/>
      <use x="111.083984" xlink:href="#Times-Roman-101"/>
      <use x="155.46875" xlink:href="#Times-Roman-99"/>
      <use x="199.853516" xlink:href="#Times-Roman-116"/>
      <use x="227.636719" xlink:href="#Times-Roman-44"/>
      <use x="252.636719" xlink:href="#Times-Roman-32"/>
      <use x="277.636719" xlink:href="#Times-Roman-54"/>
      <use x="327.636719" xlink:href="#Times-Roman-52"/>
      <use x="377.636719" xlink:href="#Times-Roman-77"/>
      <use x="466.552734" xlink:href="#Times-Roman-32"/>
      <use x="491.552734" xlink:href="#Times-Roman-101"/>
      <use x="535.9375" xlink:href="#Times-Roman-112"/>
      <use x="585.9375" xlink:href="#Times-Roman-105"/>
      <use x="613.720703" xlink:href="#Times-Roman-115"/>
      <use x="652.636719" xlink:href="#Times-Roman-111"/>
      <use x="702.636719" xlink:href="#Times-Roman-100"/>
      <use x="752.636719" xlink:href="#Times-Roman-101"/>
      <use x="797.021484" xlink:href="#Times-Roman-115"/>
     </g>
    </g>
   </g>
   <g id="legend_2">
    <g id="patch_8">
     <path d="M 339.3225 248 
L 431.8 248 
Q 433.4 248 433.4 246.4 
L 433.4 179.145 
Q 433.4 177.545 431.8 177.545 
L 339.3225 177.545 
Q 337.7225 177.545 337.7225 179.145 
L 337.7225 246.4 
Q 337.7225 248 339.3225 248 
z
" style="fill:#ffffff;opacity:0.8;stroke:#cccccc;stroke-linejoin:miter;stroke-width:0.24;"/>
    </g>
    <g id="line2d_32">
     <path d="M 340.9225 183.545 
L 356.9225 183.545 
" style="fill:none;stroke:#000000;stroke-dasharray:5.18,2.24;stroke-dashoffset:0;stroke-width:1.4;"/>
    </g>
    <g id="line2d_33"/>
    <g id="text_23">
     <!-- optimal -->
     <g transform="translate(363.3225 186.345)scale(0.08 -0.08)">
      <use xlink:href="#Times-Roman-111"/>
      <use x="50" xlink:href="#Times-Roman-112"/>
      <use x="100" xlink:href="#Times-Roman-116"/>
      <use x="127.783203" xlink:href="#Times-Roman-105"/>
      <use x="155.566406" xlink:href="#Times-Roman-109"/>
      <use x="233.349609" xlink:href="#Times-Roman-97"/>
      <use x="277.734375" xlink:href="#Times-Roman-108"/>
     </g>
    </g>
    <g id="line2d_34"/>
    <g id="line2d_35">
     <g>
      <use style="fill:#0072b2;" x="348.9225" xlink:href="#m030c5e1c08" y="194.8875"/>
     </g>
    </g>
    <g id="text_24">
     <!-- direct -->
     <g transform="translate(363.3225 197.6875)scale(0.08 -0.08)">
      <use xlink:href="#Times-Roman-100"/>
      <use x="50" xlink:href="#Times-Roman-105"/>
      <use x="77.783203" xlink:href="#Times-Roman-114"/>
      <use x="111.083984" xlink:href="#Times-Roman-101"/>
      <use x="155.46875" xlink:href="#Times-Roman-99"/>
      <use x="199.853516" xlink:href="#Times-Roman-116"/>
     </g>
    </g>
    <g id="line2d_36"/>
    <g id="line2d_37">
     <g>
      <use style="fill:#009e73;" x="348.9225" xlink:href="#maaf5819504" y="206.23"/>
     </g>
    </g>
    <g id="text_25">
     <!-- 60000 labels -->
     <g transform="translate(363.3225 209.03)scale(0.08 -0.08)">
      <use xlink:href="#Times-Roman-54"/>
      <use x="50" xlink:href="#Times-Roman-48"/>
      <use x="100" xlink:href="#Times-Roman-48"/>
      <use x="150" xlink:href="#Times-Roman-48"/>
      <use x="200" xlink:href="#Times-Roman-48"/>
      <use x="250" xlink:href="#Times-Roman-32"/>
      <use x="275" xlink:href="#Times-Roman-108"/>
      <use x="302.783203" xlink:href="#Times-Roman-97"/>
      <use x="347.167969" xlink:href="#Times-Roman-98"/>
      <use x="397.167969" xlink:href="#Times-Roman-101"/>
      <use x="441.552734" xlink:href="#Times-Roman-108"/>
      <use x="469.335938" xlink:href="#Times-Roman-115"/>
     </g>
    </g>
    <g id="line2d_38"/>
    <g id="line2d_39">
     <g>
      <use style="fill:#d55e00;" x="348.9225" xlink:href="#me8f64076ad" y="217.5725"/>
     </g>
    </g>
    <g id="text_26">
     <!-- 20000 labels -->
     <g transform="translate(363.3225 220.3725)scale(0.08 -0.08)">
      <use xlink:href="#Times-Roman-50"/>
      <use x="50" xlink:href="#Times-Roman-48"/>
      <use x="100" xlink:href="#Times-Roman-48"/>
      <use x="150" xlink:href="#Times-Roman-48"/>
      <use x="200" xlink:href="#Times-Roman-48"/>
      <use x="250" xlink:href="#Times-Roman-32"/>
      <use x="275" xlink:href="#Times-Roman-108"/>
      <use x="302.783203" xlink:href="#Times-Roman-97"/>
      <use x="347.167969" xlink:href="#Times-Roman-98"/>
      <use x="397.167969" xlink:href="#Times-Roman-101"/>
      <use x="441.552734" xlink:href="#Times-Roman-108"/>
      <use x="469.335938" xlink:href="#Times-Roman-115"/>
     </g>
    </g>
    <g id="line2d_40"/>
    <g id="line2d_41">
     <g>
      <use style="fill:#cc79a7;" x="348.9225" xlink:href="#m49002b2131" y="228.915"/>
     </g>
    </g>
    <g id="text_27">
     <!-- 5000 labels -->
     <g transform="translate(363.3225 231.715)scale(0.08 -0.08)">
      <use xlink:href="#Times-Roman-53"/>
      <use x="50" xlink:href="#Times-Roman-48"/>
      <use x="100" xlink:href="#Times-Roman-48"/>
      <use x="150" xlink:href="#Times-Roman-48"/>
      <use x="200" xlink:href="#Times-Roman-32"/>
      <use x="225" xlink:href="#Times-Roman-108"/>
      <use x="252.783203" xlink:href="#Times-Roman-97"/>
      <use x="297.167969" xlink:href="#Times-Roman-98"/>
      <use x="347.167969" xlink:href="#Times-Roman-101"/>
      <use x="391.552734" xlink:href="#Times-Roman-108"/>
      <use x="419.335938" xlink:href="#Times-Roman-115"/>
     </g>
    </g>
    <g id="line2d_42"/>
    <g id="line2d_43">
     <g>
      <use style="fill:#f0e442;" x="348.9225" xlink:href="#m9d4cfb443f" y="240.2575"/>
     </g>
    </g>
    <g id="text_28">
     <!-- direct, 64M episodes -->
     <g transform="translate(363.3225 243.0575)scale(0.08 -0.08)">
      <use xlink:href="#Times-Roman-100"/>
      <use x="50" xlink:href="#Times-Roman-105"/>
      <use x="77.783203" xlink:href="#Times-Roman-114"/>
      <use x="111.083984" xlink:href="#Times-Roman-101"/>
      <use x="155.46875" xlink:href="#Times-Roman-99"/>
      <use x="199.853516" xlink:href="#Times-Roman-116"/>
      <use x="227.636719" xlink:href="#Times-Roman-44"/>
      <use x="252.636719" xlink:href="#Times-Roman-32"/>
      <use x="277.636719" xlink:href="#Times-Roman-54"/>
      <use x="327.636719" xlink:href="#Times-Roman-52"/>
      <use x="377.636719" xlink:href="#Times-Roman-77"/>
      <use x="466.552734" xlink:href="#Times-Roman-32"/>
      <use x="491.552734" xlink:href="#Times-Roman-101"/>
      <use x="535.9375" xlink:href="#Times-Roman-112"/>
      <use x="585.9375" xlink:href="#Times-Roman-105"/>
      <use x="613.720703" xlink:href="#Times-Roman-115"/>
      <use x="652.636719" xlink:href="#Times-Roman-111"/>
      <use x="702.636719" xlink:href="#Times-Roman-100"/>
      <use x="752.636719" xlink:href="#Times-Roman-101"/>
      <use x="797.021484" xlink:href="#Times-Roman-115"/>
     </g>
    </g>
   </g>
  </g>
 </g>
 <defs>
  <clipPath id="pcade69a6f5">
   <rect height="217.44" width="376.65" x="60.75" y="34.56"/>
  </clipPath>
 </defs>
</svg>
